# Blender v2.76 (sub 0) OBJ File: ''
# www.blender.org
mtllib backRight.mtl
o Cube_Back_R_Cube.004
v -0.006758 -0.583854 -1.000000
v -0.006758 0.350930 -1.000000
v -0.006758 -0.819003 -2.415147
v -0.006758 0.211439 -2.213083
v -0.670439 -0.310640 -1.000000
v -0.958813 0.344891 -1.000000
v -0.806758 -0.226475 -2.053929
v -0.806758 0.171495 -2.153833
v -0.806758 -0.031553 -2.101456
v -0.876016 -0.160834 -1.000000
v -0.508798 -0.384435 -2.020943
v -0.006758 0.113044 -2.232377
v -0.006758 -0.582111 -1.913436
vn -1.000000 0.000000 0.000000
vn 0.517000 -0.164700 0.840000
vn 0.857100 0.514500 0.024300
vn 0.000000 0.000000 -1.000000
vn 0.408500 0.825400 -0.389700
vn 0.030500 -0.990700 0.132900
vn 0.988000 0.122400 0.094600
vn 0.395800 0.918400 -0.000300
vn 0.095100 0.223700 0.970000
usemtl WhiteBase
s off
f 2//1 4//1 12//1 13//1 1//1
f 12//2 11//2 3//2
f 9//3 10//3 5//3 7//3
f 6//4 2//4 1//4 5//4 10//4
f 13//5 3//5 11//5
f 6//6 8//6 4//6 2//6
f 8//7 6//7 10//7 9//7
f 13//1 12//1 3//1
f 1//8 13//8 11//8 7//8 5//8
f 4//9 8//9 9//9 7//9 11//9 12//9
