# Blender v2.76 (sub 0) OBJ File: ''
# www.blender.org
mtllib backLeft.mtl
o Cube_Back_L_Cube.003
v -0.414387 0.497630 0.700323
v -0.414387 0.358139 -0.512760
v -0.414387 0.259744 -0.532054
v -0.414387 -0.435411 -0.213113
v -0.414387 -0.437154 0.700323
v 0.087653 -0.237735 -0.320619
v -0.414387 -0.672302 -0.714824
v 0.385613 0.115147 -0.401132
v 0.454870 -0.014134 0.700323
v 0.249294 -0.163940 0.700323
v 0.385613 -0.079775 -0.353606
v 0.537668 0.491591 0.700323
v 0.385613 0.318195 -0.453509
vn -1.000000 0.000000 0.000000
vn 0.517000 0.164700 -0.840000
vn 0.857100 -0.514500 -0.024300
vn -0.000000 0.000000 1.000000
vn 0.408500 -0.825400 0.389700
vn 0.030500 0.990700 -0.132900
vn 0.988000 -0.122400 -0.094600
vn 0.395800 -0.918400 0.000300
vn 0.095100 -0.223700 -0.970000
usemtl WhiteBase
s 1
f 1//1 2//1 3//1 4//1 5//1
f 3//2 6//2 7//2
f 8//3 9//3 10//3 11//3
f 12//4 1//4 5//4 10//4 9//4
f 4//5 7//5 6//5
f 12//6 13//6 2//6 1//6
f 13//7 12//7 9//7 8//7
f 4//1 3//1 7//1
f 5//8 4//8 6//8 11//8 10//8
f 2//9 13//9 8//9 11//9 6//9 3//9
