####
#
# OBJ File Generated by Meshlab
#
####
# Object centerRight.obj
#
# Vertices: 12
# Faces: 20
#
####
mtllib ./centerRight.obj.mtl

vn -1.570796 -1.570796 -1.570796
v 0.446815 0.607980 1.035835 0.752941 0.752941 0.752941
vn -2.418503 -2.839303 0.918749
v 0.446815 0.607980 -0.255079 0.752941 0.752941 0.752941
vn -2.128023 -1.349021 2.373027
v 0.446815 0.153593 -0.964166 0.752941 0.752941 0.752941
vn -1.570796 1.570796 1.570796
v 0.446815 -0.692020 -0.964166 0.752941 0.752941 0.752941
vn -1.183130 1.521736 -1.349280
v 0.446815 -0.692020 1.035835 0.752941 0.752941 0.752941
vn 1.849277 -1.192863 1.906874
v -0.553185 0.230571 -0.964166 0.752941 0.752941 0.752941
vn 2.489291 1.569147 2.438286
v -0.469289 -0.198867 -0.964166 0.752941 0.752941 0.752941
vn 0.927877 2.837919 2.513380
v 0.190566 -0.692020 -0.964166 0.752941 0.752941 0.752941
vn 2.696689 0.534430 -2.192994
v -0.549789 0.014470 1.035835 0.752941 0.752941 0.752941
vn 1.601247 2.575037 -2.664077
v -0.043737 -0.555629 1.035835 0.752941 0.752941 0.752941
vn 1.470937 -2.118257 -1.972317
v -0.345048 0.607980 1.035835 0.752941 0.752941 0.752941
vn 2.716767 -2.973152 0.426142
v -0.463592 0.607980 -0.103265 0.752941 0.752941 0.752941
# 12 vertices, 0 vertices normals


usemtl material_0
f 1//1 2//2 3//3
f 1//1 3//3 4//4
f 1//1 4//4 5//5
f 3//3 6//6 7//7
f 3//3 7//7 8//8
f 3//3 8//8 4//4
f 7//7 9//9 10//10
f 7//7 10//10 8//8
f 11//11 1//1 5//5
f 11//11 5//5 10//10
f 11//11 10//10 9//9
f 5//5 4//4 8//8
f 5//5 8//8 10//10
f 11//11 12//12 2//2
f 11//11 2//2 1//1
f 6//6 12//12 11//11
f 6//6 11//11 9//9
f 6//6 9//9 7//7
f 12//12 6//6 3//3
f 12//12 3//3 2//2
# 20 faces, 0 coords texture

# End of File