# Blender v2.76 (sub 0) OBJ File: ''
# www.blender.org
mtllib frontLeft.mtl
o Cube_Front_L_Cube.002
v 0.000000 -0.249905 2.395808
v 0.000000 0.819137 3.113382
v 0.000000 -0.563691 0.999575
v 0.000000 0.865315 0.999575
v 0.250000 0.000000 2.290851
v 0.539862 0.663833 2.401634
v 0.850592 0.607225 1.006253
v 0.844754 0.641046 0.999575
v 0.000000 0.000000 2.625411
v 0.000000 0.511580 1.999575
v 0.000000 0.000000 0.999575
v 0.000000 -0.484098 1.999575
v 0.500000 0.841099 0.999575
v 1.000000 0.185100 0.999575
v 0.500000 -0.364474 0.999575
v 0.619487 0.228364 1.999575
v 0.387537 -0.040502 2.010259
v 0.500000 0.764013 2.591787
v 0.500000 0.501635 1.999575
v 0.123388 -0.361633 1.999575
v 0.500000 0.000000 0.999575
v 0.000000 0.000000 1.999575
v 0.000000 0.460019 2.999576
v 0.000000 0.859685 1.437305
v 0.000000 -0.500000 0.999575
v 0.000000 -0.318260 2.313366
v 0.750000 0.833634 0.999575
v 0.862921 0.041959 0.999575
v 0.250000 -0.445797 0.999575
v 0.654807 -0.015318 1.499575
v 0.250000 0.839630 2.941300
v 0.000000 -0.154484 2.469606
v 0.000000 0.523793 2.499576
v 0.000000 0.500000 0.999575
v 0.000000 -0.552293 1.499575
v 0.250000 0.853493 0.999575
v 0.971406 0.381186 0.999575
v 0.750000 -0.086179 0.999575
v 0.787028 0.489230 1.499575
v 0.371251 0.445551 2.612444
v 0.530721 0.762404 2.568492
v 0.250000 0.515674 1.999575
v 0.750000 0.418750 1.999575
v 0.500000 0.455323 2.291536
v 0.500000 0.839468 1.417273
v 0.356911 -0.361633 1.499575
v 0.500000 -0.191456 0.999575
v 0.500000 0.500000 0.999575
v 0.250000 0.000000 0.999575
v 0.750000 0.000000 0.999575
v 0.000000 -0.269743 1.999575
v 0.000000 0.500000 1.999575
v 0.000000 0.000000 2.499576
v 0.000000 0.000000 1.499575
v 0.000000 0.500000 1.499575
v 0.000000 0.500000 2.499576
v 0.000000 -0.144006 2.294905
v 0.750000 0.500000 0.999575
v 0.250000 0.500000 0.999575
v 0.250000 -0.307260 0.999575
v 0.449282 0.431257 2.510259
v 0.899495 0.391242 1.499575
v 0.250000 0.481977 2.806582
v 0.281404 -0.438566 1.499575
v 0.708636 0.841929 1.409927
v 0.250000 0.523249 2.499576
v 0.250000 0.854959 1.398932
v 0.743845 0.040822 0.968033
v 0.000000 -0.500000 1.499575
vn -1.000000 0.000000 0.000000
vn 0.096600 -0.085100 0.991700
vn 0.733000 -0.643000 0.222000
vn 0.685800 -0.516800 0.512400
vn 0.033500 0.999400 0.005000
vn -0.007100 0.999800 -0.019800
vn -0.802400 0.442000 -0.401100
vn 0.010800 0.999900 -0.007500
vn 0.623300 -0.537000 0.568400
vn 0.436500 -0.897800 0.057800
vn 0.802000 -0.413200 0.431400
vn 0.705200 -0.675300 0.216100
vn 0.789100 -0.474900 0.389600
vn 0.616200 -0.564300 0.549500
vn -0.000000 0.000000 -1.000000
vn 0.716000 -0.549800 0.430300
vn 0.587400 -0.186400 0.787500
vn 0.871800 -0.399400 0.283700
vn 0.874500 -0.273200 0.400800
vn 0.817400 0.546200 0.183400
vn 0.894300 -0.320700 0.312000
vn 0.719600 -0.591000 0.364600
vn 0.583100 -0.266100 0.767600
vn -0.922500 -0.015600 -0.385700
vn 0.399600 -0.916700 0.004500
vn 0.154300 0.831100 0.534200
vn 0.994500 -0.085300 0.061600
vn 0.934500 0.321800 0.152400
vn -0.263000 0.903500 -0.338400
vn 0.792900 -0.024400 0.608900
vn 0.493700 -0.846100 0.200800
vn -0.202800 0.847200 -0.491000
vn -0.446400 0.684300 -0.576500
vn 0.181000 0.982300 0.048000
vn 0.040100 0.860200 0.508400
vn 0.033000 0.867400 0.496500
vn 0.055700 0.998400 0.000200
vn 0.716700 -0.608900 0.339900
vn 0.968400 -0.142500 0.204600
vn 0.658000 -0.550200 0.514200
vn 0.686300 -0.444900 0.575300
vn 0.677100 -0.664500 0.316200
vn 0.043600 -0.103600 -0.993700
vn -0.159700 0.208600 -0.964900
vn -0.196900 0.529900 -0.824900
vn 0.776200 -0.245800 0.580700
vn 0.692600 -0.583800 0.423700
vn 0.651700 -0.446800 0.612900
vn 0.720000 -0.534200 0.442900
usemtl WhiteBase
s off
f 69//1 25//1 3//1 35//1
f 68//2 28//2 7//2 38//2
f 46//3 15//3 38//3 30//3
f 5//4 9//4 32//4
f 67//5 36//5 4//5 24//5
f 66//6 42//6 10//6 33//6
f 41//7 6//7 44//7 18//7
f 65//8 27//8 13//8 45//8
f 63//9 23//9 9//9 5//9
f 64//10 29//10 15//10 46//10
f 16//11 6//11 61//11 17//11
f 14//12 30//12 28//12
f 62//13 17//13 30//13
f 61//14 40//14 5//14
f 60//15 47//15 15//15 29//15
f 59//15 48//15 21//15 49//15
f 58//15 37//15 14//15 50//15
f 57//1 51//1 12//1 26//1
f 56//1 52//1 22//1 53//1
f 55//1 34//1 11//1 54//1
f 52//1 55//1 54//1 22//1
f 10//1 24//1 55//1 52//1
f 24//1 4//1 34//1 55//1
f 23//1 56//1 53//1 9//1
f 2//1 33//1 56//1 23//1
f 33//1 10//1 52//1 56//1
f 32//1 57//1 26//1 1//1
f 9//1 53//1 57//1 32//1
f 53//1 22//1 51//1 57//1
f 48//15 58//15 50//15 21//15
f 13//15 27//15 58//15 48//15
f 27//15 8//15 37//15 58//15
f 34//15 59//15 49//15 11//15
f 4//15 36//15 59//15 34//15
f 36//15 13//15 48//15 59//15
f 25//15 60//15 29//15 3//15
f 11//15 49//15 60//15 25//15
f 49//15 21//15 47//15 60//15
f 17//16 61//16 5//16
f 41//17 18//17 40//17
f 6//18 41//18 40//18
f 39//19 16//19 17//19 62//19
f 8//20 39//20 62//20 37//20
f 37//21 62//21 30//21 14//21
f 26//22 12//22 20//22 5//22
f 31//23 2//23 23//23 63//23
f 28//24 30//24 7//24
f 35//25 3//25 29//25 64//25
f 43//26 65//26 45//26 19//26
f 16//27 39//27 65//27 43//27
f 39//28 8//28 27//28 65//28
f 6//29 43//29 19//29 44//29
f 6//30 40//30 61//30
f 12//31 35//31 64//31 20//31
f 31//32 66//32 33//32 2//32
f 18//33 44//33 66//33 31//33
f 44//34 19//34 42//34 66//34
f 42//35 67//35 24//35 10//35
f 19//36 45//36 67//36 42//36
f 45//37 13//37 36//37 67//37
f 20//38 46//38 30//38 17//38
f 30//39 38//39 7//39
f 40//40 63//40 5//40
f 5//41 32//41 1//41
f 20//42 64//42 46//42
f 47//43 68//43 38//43 15//43
f 21//44 50//44 68//44 47//44
f 50//45 14//45 28//45 68//45
f 51//1 69//1 35//1 12//1
f 22//1 54//1 69//1 51//1
f 54//1 11//1 25//1 69//1
f 18//46 31//46 63//46 40//46
f 5//47 20//47 17//47
f 6//48 16//48 43//48
f 1//49 26//49 5//49
