# Blender v2.76 (sub 0) OBJ File: ''
# www.blender.org
mtllib novo4p.mtl
o bridge_Cube_Cube.002
v 448.967682 -486.596252 5.037021
v 454.560150 -406.795013 4.339007
v 449.573090 -406.446289 4.251745
v 443.980621 -486.247528 4.949759
v 461.934052 -487.502960 5.263902
v 467.526489 -407.701721 4.565889
v 467.546661 -407.713623 3.366117
v 461.954193 -487.514862 4.064129
v 469.521332 -407.841217 4.600793
v 469.541473 -407.853119 3.401022
v 463.928864 -487.642456 5.298807
v 463.949036 -487.654358 4.099034
v 463.562897 -487.608063 6.292507
v 469.504883 -402.819275 5.550868
v 469.525055 -402.831177 4.351096
v 463.583069 -487.619995 5.092734
v 469.804108 -402.840179 5.556103
v 469.824280 -402.852081 4.356331
v 463.862122 -487.628998 6.297742
v 463.882294 -487.640900 5.097970
v 449.593231 -406.458191 3.051974
v 444.000793 -486.259430 3.749987
v 454.580292 -406.806946 3.139236
v 448.987854 -486.608154 3.837249
v 464.675385 -436.662445 -5.527450
v 464.507385 -436.563202 4.470648
v 464.700623 -436.595978 4.474220
v 464.868622 -436.695190 -5.523877
v 465.051758 -436.765045 -5.520106
v 465.217743 -436.869293 -5.516283
v 465.360199 -437.003906 -5.512553
v 465.473633 -437.163757 -5.509060
v 465.553711 -437.342651 -5.505939
v 465.597351 -437.533752 -5.503309
v 465.602905 -437.729706 -5.501271
v 465.570099 -437.922974 -5.499905
v 465.500214 -438.106110 -5.499261
v 465.395966 -438.272125 -5.499366
v 465.261322 -438.414612 -5.500214
v 465.101501 -438.528107 -5.501773
v 464.922577 -438.608215 -5.503984
v 464.731506 -438.651917 -5.506761
v 464.535583 -438.657471 -5.509998
v 450.543640 -435.586761 4.226315
v 450.711639 -435.686005 -5.771783
v 464.367554 -438.558228 4.488098
v 464.563507 -438.552673 4.491335
v 464.754578 -438.509003 4.494113
v 464.933472 -438.428864 4.496324
v 465.093323 -438.315399 4.497884
v 465.227966 -438.172913 4.498732
v 465.332214 -438.006897 4.498836
v 465.402069 -437.823730 4.498192
v 465.434875 -437.630463 4.496826
v 465.429352 -437.434509 4.494788
v 465.385712 -437.243408 4.492158
v 465.305634 -437.064514 4.489037
v 465.192169 -436.904694 4.485544
v 465.049744 -436.770050 4.481814
v 464.883759 -436.665833 4.477991
v 450.571808 -437.681030 -5.754332
v 450.571808 -437.681030 -5.754332
v 450.767731 -437.675476 -5.751096
v 450.958801 -437.631775 -5.748318
v 451.137726 -437.551666 -5.746107
v 451.297546 -437.438171 -5.744547
v 451.432190 -437.295685 -5.743699
v 451.536438 -437.129669 -5.743595
v 451.606323 -436.946503 -5.744239
v 451.639130 -436.753235 -5.745605
v 451.633606 -436.557312 -5.747642
v 451.589935 -436.366211 -5.750273
v 451.509857 -436.187317 -5.753394
v 451.396423 -436.027466 -5.756886
v 451.253967 -435.892853 -5.760616
v 451.087982 -435.788605 -5.764440
v 450.904846 -435.718750 -5.768210
v 450.736847 -435.619537 4.229887
v 450.919983 -435.689392 4.233657
v 451.085968 -435.793610 4.237481
v 451.228424 -435.928253 4.241211
v 451.341858 -436.088074 4.244703
v 451.421936 -436.266968 4.247825
v 451.465576 -436.458069 4.250454
v 451.471130 -436.654022 4.252492
v 451.438324 -436.847290 4.253859
v 451.368439 -437.030457 4.254502
v 451.264191 -437.196472 4.254398
v 451.129547 -437.338928 4.253550
v 450.969727 -437.452423 4.251990
v 450.790802 -437.532562 4.249779
v 450.599731 -437.576233 4.247002
v 450.403809 -437.581787 4.243765
v 450.403809 -437.581787 4.243765
v 450.711609 -435.685974 -5.771783
v 450.543610 -435.586761 4.226315
v 450.711609 -435.685974 -5.771783
v 450.543610 -435.586761 4.226315
v 450.571808 -437.681030 -5.754332
v 450.378571 -437.648254 -5.757905
v 450.195435 -437.578400 -5.761676
v 450.029449 -437.474152 -5.765499
v 449.886993 -437.339539 -5.769229
v 449.773560 -437.179688 -5.772721
v 449.693481 -437.000793 -5.775843
v 449.649811 -436.809692 -5.778473
v 449.644287 -436.613770 -5.780510
v 449.677094 -436.420502 -5.781876
v 449.746979 -436.237335 -5.782520
v 449.851227 -436.071320 -5.782416
v 449.985870 -435.928833 -5.781568
v 450.145691 -435.815369 -5.780008
v 450.324615 -435.735229 -5.777798
v 450.515686 -435.691559 -5.775020
v 450.347687 -435.592316 4.223077
v 450.156586 -435.635986 4.220300
v 449.977692 -435.716125 4.218089
v 449.817871 -435.829590 4.216529
v 449.683228 -435.972107 4.215681
v 449.578979 -436.138123 4.215577
v 449.509094 -436.321259 4.216220
v 449.476288 -436.514526 4.217587
v 449.481812 -436.710480 4.219625
v 449.525452 -436.901581 4.222255
v 449.605560 -437.080475 4.225376
v 449.718994 -437.240295 4.228869
v 449.861450 -437.374939 4.232598
v 450.027435 -437.479156 4.236422
v 450.210541 -437.549011 4.240192
v 450.403809 -437.581787 4.243765
v 443.963867 -486.237640 5.949570
v 449.556335 -406.436401 5.251556
v 449.576508 -406.448303 4.051785
v 443.984039 -486.249542 4.749797
v 449.855560 -406.457336 5.256793
v 449.875732 -406.469238 4.057020
v 444.263092 -486.258575 5.954804
v 444.283264 -486.270477 4.755033
v 448.970154 -486.597717 4.887048
v 454.562592 -406.796478 4.189035
v 454.579407 -406.806396 3.189225
v 448.986938 -486.607635 3.887238
v 467.528961 -407.703186 4.415916
v 467.545776 -407.713104 3.416106
v 461.936493 -487.504395 5.113928
v 461.953308 -487.514343 4.114120
v 463.277283 -456.612732 -5.352946
v 463.109253 -456.513519 4.645151
v 463.302521 -456.546295 4.648724
v 463.470520 -456.645508 -5.349374
v 463.653625 -456.715363 -5.345603
v 463.819611 -456.819611 -5.341780
v 463.962067 -456.954224 -5.338050
v 464.075531 -457.114044 -5.334558
v 464.155609 -457.292969 -5.331436
v 464.199249 -457.484070 -5.328806
v 464.204773 -457.679993 -5.326769
v 464.171967 -457.873260 -5.325401
v 464.102112 -458.056427 -5.324758
v 463.997833 -458.222443 -5.324862
v 463.863220 -458.364929 -5.325710
v 463.703369 -458.478424 -5.327270
v 463.524475 -458.558533 -5.329481
v 463.333374 -458.602203 -5.332258
v 463.137451 -458.607758 -5.335496
v 449.145508 -455.537079 4.400818
v 449.313507 -455.636292 -5.597280
v 462.969452 -458.508545 4.662601
v 463.165375 -458.502991 4.665839
v 463.356476 -458.459290 4.668616
v 463.535370 -458.379181 4.670827
v 463.695190 -458.265686 4.672387
v 463.829834 -458.123199 4.673235
v 463.934082 -457.957214 4.673339
v 464.003967 -457.774048 4.672696
v 464.036774 -457.580780 4.671329
v 464.031250 -457.384827 4.669292
v 463.987610 -457.193726 4.666661
v 463.907501 -457.014832 4.663540
v 463.794067 -456.855011 4.660048
v 463.651611 -456.720367 4.656318
v 463.485626 -456.616150 4.652494
v 449.173676 -457.631317 -5.579829
v 449.173676 -457.631317 -5.579829
v 449.369629 -457.625763 -5.576592
v 449.560699 -457.582092 -5.573814
v 449.739594 -457.501953 -5.571604
v 449.899445 -457.388489 -5.570044
v 450.034088 -457.246002 -5.569196
v 450.138336 -457.079987 -5.569092
v 450.208191 -456.896820 -5.569735
v 450.240997 -456.703552 -5.571102
v 450.235474 -456.507599 -5.573139
v 450.191833 -456.316528 -5.575769
v 450.111755 -456.137604 -5.578891
v 449.998291 -455.977783 -5.582383
v 449.855865 -455.843170 -5.586113
v 449.689880 -455.738922 -5.589937
v 449.506744 -455.669067 -5.593707
v 449.338745 -455.569855 4.404390
v 449.521881 -455.639679 4.408160
v 449.687836 -455.743927 4.411984
v 449.830292 -455.878540 4.415714
v 449.943756 -456.038391 4.419207
v 450.023834 -456.217285 4.422328
v 450.067474 -456.408386 4.424957
v 450.072998 -456.604340 4.426995
v 450.040192 -456.797607 4.428362
v 449.970337 -456.980743 4.429006
v 449.866058 -457.146759 4.428901
v 449.731445 -457.289246 4.428053
v 449.571594 -457.402740 4.426494
v 449.392700 -457.482849 4.424283
v 449.201599 -457.526550 4.421505
v 449.005676 -457.532104 4.418268
v 449.005676 -457.532104 4.418268
v 449.313507 -455.636292 -5.597280
v 449.145508 -455.537079 4.400817
v 449.313507 -455.636292 -5.597280
v 449.145508 -455.537079 4.400817
v 449.173676 -457.631317 -5.579829
v 448.980438 -457.598541 -5.583402
v 448.797302 -457.528717 -5.587172
v 448.631348 -457.424469 -5.590996
v 448.488892 -457.289856 -5.594726
v 448.375427 -457.130005 -5.598218
v 448.295349 -456.951111 -5.601339
v 448.251709 -456.760010 -5.603970
v 448.246185 -456.564056 -5.606007
v 448.278992 -456.370789 -5.607374
v 448.348846 -456.187653 -5.608017
v 448.453125 -456.021637 -5.607913
v 448.587738 -455.879150 -5.607065
v 448.747589 -455.765656 -5.605505
v 448.926483 -455.685547 -5.603294
v 449.117584 -455.641846 -5.600517
v 448.949554 -455.542633 4.397580
v 448.758484 -455.586304 4.394803
v 448.579590 -455.666443 4.392592
v 448.419739 -455.779907 4.391032
v 448.285095 -455.922394 4.390184
v 448.180847 -456.088409 4.390080
v 448.110992 -456.271576 4.390723
v 448.078186 -456.464844 4.392090
v 448.083710 -456.660797 4.394128
v 448.127350 -456.851868 4.396758
v 448.207428 -457.030792 4.399879
v 448.320892 -457.190613 4.403372
v 448.463318 -457.325256 4.407102
v 448.629303 -457.429474 4.410925
v 448.812439 -457.499329 4.414695
v 449.005676 -457.532104 4.418268
vt 0.000000 0.737742
vt 0.000000 4.184387
vt 0.388465 4.184387
vt 0.388465 0.737742
vt 0.000000 1.049453
vt 0.388465 1.016340
vt 0.761996 0.918273
vt 1.106250 0.759023
vt 1.407990 0.544705
vt 1.655621 0.283558
vt 1.839625 -0.014383
vt 1.952936 -0.337664
vt 1.991196 -0.673869
vt 1.952936 -1.010071
vt 1.839625 -1.333354
vt 1.655621 -1.631296
vt 1.407990 -1.892443
vt 1.106250 -2.106761
vt 0.761996 -2.266011
vt 0.388461 -2.364078
vt 0.000000 -2.397191
vt 27.876745 0.737742
vt 27.876745 -2.708901
vt 0.000038 -2.708901
vt 0.388461 1.082566
vt 0.761996 1.180633
vt 1.106250 1.339883
vt 1.407990 1.554201
vt 1.655621 1.815348
vt 1.839625 2.113290
vt 1.952936 2.436573
vt 1.991196 2.772775
vt 1.952936 3.108980
vt 1.839625 3.432261
vt 1.655621 3.730202
vt 1.407990 3.991350
vt 1.106250 4.205666
vt 0.761996 4.364917
vt 0.388465 4.462984
vt 0.000000 4.496097
vt 0.761996 4.184387
vt 0.761996 0.737742
vt 1.655619 1.815351
vt 1.407988 3.991353
vt 27.876745 4.496097
vt 27.876745 1.049453
vt 1.106250 4.184387
vt 1.106250 0.737742
vt 1.407990 4.184387
vt 1.407990 0.737742
vt 3.399178 0.737742
vt 3.399178 4.184387
vt 3.097438 4.184387
vt 3.097438 0.737742
vt 2.753185 4.184387
vt 2.753185 0.737742
vt 2.379653 4.184387
vt 2.379653 0.737742
vt 1.991188 4.184387
vt 1.991188 0.737742
vt 1.602727 4.184387
vt 1.602727 0.737742
vt 1.229192 4.184387
vt 1.229192 0.737742
vt 0.884938 4.184387
vt 0.884938 0.737742
vt 0.583199 4.184387
vt 0.583199 0.737742
vt -27.876707 4.496097
vt -27.488281 4.462987
vt -27.114746 4.364920
vt -26.770493 4.205669
vt -26.468756 3.991353
vt -26.221127 3.730205
vt -26.037117 3.432264
vt -25.923809 3.108983
vt -25.885548 2.772778
vt -25.923809 2.436577
vt -26.037117 2.113293
vt -26.221127 1.815351
vt -26.468756 1.554204
vt -26.770493 1.339887
vt -27.114748 1.180637
vt -27.488281 1.082570
vt -27.876745 1.049457
vt -27.876745 0.737742
vt -27.876745 -2.708901
vt 3.982388 0.737742
vt 3.982384 4.184387
vt -0.388465 -2.364075
vt -0.761998 -2.266008
vt -1.106250 -2.106754
vt -1.407990 -1.892436
vt -1.655621 -1.631290
vt -1.839625 -1.333351
vt -1.952936 -1.010067
vt -1.991196 -0.673862
vt -1.952936 -0.337661
vt -1.839625 -0.014377
vt -1.655617 0.283561
vt -1.407986 0.544708
vt -1.106246 0.759026
vt -0.761995 0.918276
vt -0.388461 1.016344
vt 3.593931 0.737742
vt 3.593931 4.184387
vt -0.388465 4.184387
vt -0.388465 0.737742
vt 3.220394 4.184387
vt 3.220394 0.737742
vt 2.876142 4.184387
vt 2.876142 0.737742
vt 2.574402 4.184387
vt 2.574402 0.737742
vt -1.037601 2.035583
vt 2.078763 2.035583
vt 2.078763 -1.080783
vt -1.037601 -1.080783
vt 2.045358 2.050928
vt -1.096946 2.035583
vt -0.990566 -1.080783
vt 0.520583 -1.080783
vt 2.051513 2.050928
vt 2.051513 -1.065439
vt 0.520583 2.035583
vt -1.106467 2.020238
vt -1.035547 -1.019405
vt -1.021922 -1.077095
vt -1.110572 2.023926
vt 2.147633 2.054616
vt 2.147633 -1.092440
vt 0.520583 1.178582
vt 0.556042 2.039271
vt -1.035547 2.023926
vt -0.822788 -0.938993
vt -1.600543 1.930836
vt 2.956220 1.930836
vt 2.956220 -2.012910
vt -1.600543 -2.012910
vt 2.500542 1.930836
vt -2.020414 1.912899
vt -2.020414 -1.977036
vt 2.500542 -2.012910
vt 2.588807 1.841150
vt 2.485181 -2.066722
vt -2.056221 1.930836
vt -2.056221 -2.012910
vt 2.500542 -1.125567
vt 2.500542 2.818179
vt -2.082591 2.836116
vt -2.020414 -1.143504
vt -2.056221 2.818179
vt -2.056221 -1.125567
vt -2.534919 -2.534919
vt 3.534919 -2.534919
vt 3.534919 3.534918
vt -2.534919 3.534918
vt -8.098221 5.847145
vt 8.035043 5.847145
vt 8.035043 -8.115726
vt -8.098221 -8.115726
vt -6.888227 5.847145
vt 9.245037 5.847145
vt 9.245037 -8.115726
vt -6.888227 -8.115726
vt 8.020252 5.847145
vt 8.020252 -8.115726
vt 9.230247 5.847145
vt 9.230247 -8.115726
vt -6.888227 -4.974079
vt -6.888227 8.988793
vt 9.245037 8.988793
vt 9.245037 -4.974079
vt 9.230247 8.988793
vt 9.230247 -4.974079
vt 0.944096 -0.000257
vt 0.960318 0.999810
vt 0.310672 1.000257
vt 0.245456 0.000190
vt 3.317129 -6.567426
vt 3.235991 7.648563
vt -2.317129 7.567426
vt -2.235992 -6.648563
vt 0.197660 0.002179
vt 0.224270 1.002209
vt 0.028767 1.002792
vt -0.007417 0.005871
vn 0.167200 0.985900 -0.007000
vn 0.016800 -0.009900 -0.999800
vn 0.069900 0.997500 -0.008700
vn -0.016800 0.009900 0.999800
vn 0.356600 0.934200 -0.003300
vn 0.531800 0.846900 0.000500
vn 0.686700 0.726900 0.004300
vn 0.815400 0.578900 0.008000
vn 0.912700 0.408500 0.011300
vn 0.974700 0.222900 0.014200
vn 0.999500 0.028300 0.016500
vn 0.985700 -0.167400 0.018200
vn 0.934200 -0.356200 0.019200
vn 0.846500 -0.532000 0.019500
vn 0.726700 -0.686700 0.019000
vn 0.579100 -0.815100 0.017800
vn 0.408600 -0.912600 0.015900
vn 0.222600 -0.974800 0.013400
vn 0.028200 -0.999500 0.010400
vn 0.012500 -0.007400 -0.999900
vn -0.069900 -0.997500 0.008700
vn 0.000000 0.000000 1.000000
vn 0.000800 1.000000 0.000000
vn 0.000100 1.000000 0.000000
vn -0.028200 0.999500 -0.010400
vn 0.008000 -0.005100 -1.000000
vn 0.000000 0.000000 -1.000000
vn 0.497200 -0.661300 -0.561700
vn -0.167300 -0.985900 0.007000
vn -0.356300 -0.934400 0.003300
vn -0.531900 -0.846800 -0.000500
vn -0.686800 -0.726800 -0.004300
vn -0.815300 -0.579000 -0.008000
vn -0.912600 -0.408700 -0.011300
vn -0.974800 -0.222800 -0.014200
vn -0.999500 -0.028600 -0.016500
vn -0.985700 0.167700 -0.018200
vn -0.934200 0.356200 -0.019200
vn -0.846800 0.531500 -0.019500
vn -0.726500 0.686900 -0.019000
vn -0.578600 0.815400 -0.017800
vn -0.408600 0.912600 -0.015900
vn -0.222600 0.974800 -0.013400
vn -0.997400 0.069700 -0.017400
vn 0.997400 -0.069700 0.017500
vn -0.997400 0.069700 -0.017500
vn 0.069800 0.997500 -0.008700
vn -0.069900 -0.997500 0.008800
vn 0.167300 0.985900 -0.007000
vn 0.356500 0.934300 -0.003300
vn 0.686800 0.726800 0.004300
vn 0.815300 0.579000 0.008000
vn 0.974700 0.223000 0.014200
vn 0.999500 0.028100 0.016500
vn 0.985700 -0.167600 0.018200
vn 0.934100 -0.356400 0.019200
vn 0.846900 -0.531400 0.019500
vn 0.578500 -0.815500 0.017800
vn 0.408500 -0.912600 0.015900
vn 0.222400 -0.974900 0.013400
vn 0.999800 0.000000 0.017400
vn 0.497100 -0.661400 -0.561700
vn -0.356500 -0.934300 0.003300
vn -0.531600 -0.847000 -0.000500
vn -0.686900 -0.726700 -0.004300
vn -0.815500 -0.578700 -0.008000
vn -0.912700 -0.408500 -0.011300
vn -0.974700 -0.222900 -0.014200
vn -0.999500 -0.028300 -0.016500
vn -0.985700 0.167400 -0.018200
vn -0.934100 0.356500 -0.019200
vn -0.846800 0.531600 -0.019500
vn -0.726700 0.686700 -0.019000
vn -0.578700 0.815400 -0.017800
vn 0.069900 0.997500 -0.008800
usemtl concreto.001
s 1
f 147/1/1 148/2/1 149/3/1 150/4/1
f 147/5/2 150/6/2 151/7/2 152/8/2 153/9/2 154/10/2 155/11/2 156/12/2 157/13/2 158/14/2 159/15/2 160/16/2 161/17/2 162/18/2 163/19/2 164/20/2 165/21/2
f 166/1/3 148/22/3 147/23/3 167/24/3
f 168/5/4 169/25/4 170/26/4 171/27/4 172/28/4 173/29/4 174/30/4 175/31/4 176/32/4 177/33/4 178/34/4 179/35/4 180/36/4 181/37/4 182/38/4 149/39/4 148/40/4
f 150/4/5 149/3/5 182/41/5 151/42/5
f 183/5/2 184/5/2 185/25/2 186/26/2 187/27/2 188/28/2 189/43/2 190/30/2 191/31/2 192/32/2 193/33/2 194/34/2 195/35/2 196/44/2 197/37/2 198/38/2 199/39/2 167/40/2 147/45/2 165/46/2
f 151/42/6 182/41/6 181/47/6 152/48/6
f 152/48/7 181/47/7 180/49/7 153/50/7
f 153/51/8 180/52/8 179/53/8 154/54/8
f 154/54/9 179/53/9 178/55/9 155/56/9
f 155/56/10 178/55/10 177/57/10 156/58/10
f 156/58/11 177/57/11 176/59/11 157/60/11
f 157/60/12 176/59/12 175/61/12 158/62/12
f 158/62/13 175/61/13 174/63/13 159/64/13
f 159/64/14 174/63/14 173/65/14 160/66/14
f 160/66/15 173/65/15 172/67/15 161/68/15
f 161/50/16 172/49/16 171/47/16 162/48/16
f 162/48/17 171/47/17 170/41/17 163/42/17
f 163/42/18 170/41/18 169/3/18 164/4/18
f 164/4/19 169/3/19 168/2/19 165/1/19
f 168/5/4 148/40/4 166/69/4 200/70/4 201/71/4 202/72/4 203/73/4 204/74/4 205/75/4 206/76/4 207/77/4 208/78/4 209/79/4 210/80/4 211/81/4 212/82/4 213/83/4 214/84/4 215/85/20 216/85/4
f 168/1/21 216/86/21 183/87/21 165/24/21
f 184/88/22 183/88/22 216/89/22 215/89/22
f 184/5/2 217/40/2 167/40/2 199/39/2 198/38/2 197/37/2 196/44/2 195/35/2 194/34/2 193/33/2 192/32/2 191/31/2 190/30/2 189/43/2 188/28/2 187/27/2 186/26/2 185/25/2
f 166/5/4 218/5/4 215/21/20 214/20/4 213/19/4 212/18/4 211/17/4 210/16/4 209/15/4 208/14/4 207/13/4 206/12/4 205/11/4 204/10/4 203/9/4 202/8/4 201/7/4 200/6/4
f 167/1/23 219/1/24 220/2/24 166/2/24
f 219/5/2 167/5/2 217/5/2 184/21/2 221/21/2 222/90/2 223/91/2 224/92/2 225/93/2 226/94/2 227/95/2 228/96/2 229/97/2 230/98/2 231/99/2 232/100/2 233/101/2 234/102/2 235/103/2 236/104/2
f 236/105/25 237/106/25 220/89/25 219/88/25
f 166/5/4 220/5/4 237/104/4 238/103/4 239/102/4 240/101/4 241/100/4 242/99/4 243/98/4 244/97/4 245/96/4 246/95/4 247/94/4 248/93/4 249/92/4 250/91/4 251/90/4 252/21/26 215/21/20 218/5/4
f 215/5/20 252/5/26 221/5/27 184/5/28
f 221/1/29 252/2/29 251/107/29 222/108/29
f 222/105/30 251/106/30 250/109/30 223/110/30
f 223/110/31 250/109/31 249/111/31 224/112/31
f 224/112/32 249/111/32 248/113/32 225/114/32
f 225/68/33 248/67/33 247/65/33 226/66/33
f 226/66/34 247/65/34 246/63/34 227/64/34
f 227/64/35 246/63/35 245/61/35 228/62/35
f 228/62/36 245/61/36 244/59/36 229/60/36
f 229/60/37 244/59/37 243/57/37 230/58/37
f 230/58/38 243/57/38 242/55/38 231/56/38
f 231/56/39 242/55/39 241/53/39 232/54/39
f 232/54/40 241/53/40 240/52/40 233/51/40
f 233/114/41 240/113/41 239/111/41 234/112/41
f 234/112/42 239/111/42 238/109/42 235/110/42
f 235/110/43 238/109/43 237/106/43 236/105/43
usemtl concreto_concreto.jpg
f 5/115/44 6/116/44 7/117/44 8/118/44
f 6/119/3 9/120/3 10/121/3 7/122/3
f 9/115/45 11/123/45 12/124/45 10/118/45
f 11/125/21 5/126/21 8/127/21 12/122/21
f 8/128/2 7/129/2 10/130/2 12/131/2
f 11/132/4 9/133/4 6/134/4 5/135/4
f 13/136/46 14/137/46 15/138/46 16/139/46
f 14/140/47 17/141/47 18/142/47 15/143/47
f 17/136/45 19/144/45 20/145/45 18/139/45
f 19/140/48 13/146/48 16/147/48 20/143/48
f 16/148/2 15/149/2 18/150/2 20/151/2
f 19/148/4 17/149/4 14/152/4 13/153/4
f 4/154/46 3/155/46 21/156/46 22/157/46
f 3/154/3 2/155/3 23/156/3 21/157/3
f 2/154/45 1/155/45 24/156/45 23/157/45
f 1/154/21 4/155/21 22/156/21 24/157/21
f 22/154/2 21/155/2 23/156/2 24/157/2
f 25/1/49 26/2/49 27/3/49 28/4/49
f 25/5/2 28/6/2 29/7/2 30/8/2 31/9/2 32/10/2 33/11/2 34/12/2 35/13/2 36/14/2 37/15/2 38/16/2 39/17/2 40/18/2 41/19/2 42/20/2 43/21/2
f 44/1/3 26/22/3 25/23/3 45/24/3
f 46/5/4 47/25/4 48/26/4 49/27/4 50/28/4 51/29/4 52/30/4 53/31/4 54/32/4 55/33/4 56/34/4 57/35/4 58/36/4 59/37/4 60/38/4 27/39/4 26/40/4
f 28/4/50 27/3/50 60/41/50 29/42/50
f 61/5/2 62/5/2 63/25/2 64/26/2 65/27/2 66/28/2 67/43/2 68/30/2 69/31/2 70/32/2 71/33/2 72/34/2 73/35/2 74/44/2 75/37/2 76/38/2 77/39/2 45/40/2 25/45/2 43/46/2
f 29/42/6 60/41/6 59/47/6 30/48/6
f 30/48/51 59/47/51 58/49/51 31/50/51
f 31/51/52 58/52/52 57/53/52 32/54/52
f 32/54/9 57/53/9 56/55/9 33/56/9
f 33/56/53 56/55/53 55/57/53 34/58/53
f 34/58/54 55/57/54 54/59/54 35/60/54
f 35/60/55 54/59/55 53/61/55 36/62/55
f 36/62/56 53/61/56 52/63/56 37/64/56
f 37/64/57 52/63/57 51/65/57 38/66/57
f 38/66/15 51/65/15 50/67/15 39/68/15
f 39/50/58 50/49/58 49/47/58 40/48/58
f 40/48/59 49/47/59 48/41/59 41/42/59
f 41/42/60 48/41/60 47/3/60 42/4/60
f 42/4/19 47/3/19 46/2/19 43/1/19
f 46/5/4 26/40/4 44/69/4 78/70/4 79/71/4 80/72/4 81/73/4 82/74/4 83/75/4 84/76/4 85/77/4 86/78/4 87/79/4 88/80/4 89/81/4 90/82/4 91/83/4 92/84/4 93/85/20 94/85/4
f 46/1/21 94/86/21 61/87/21 43/24/21
f 62/88/22 61/88/22 94/89/22 93/89/22
f 62/5/2 95/40/2 45/40/2 77/39/2 76/38/2 75/37/2 74/44/2 73/35/2 72/34/2 71/33/2 70/32/2 69/31/2 68/30/2 67/43/2 66/28/2 65/27/2 64/26/2 63/25/2
f 44/5/4 96/5/4 93/21/20 92/20/4 91/19/4 90/18/4 89/17/4 88/16/4 87/15/4 86/14/4 85/13/4 84/12/4 83/11/4 82/10/4 81/9/4 80/8/4 79/7/4 78/6/4
f 45/1/61 97/1/61 98/2/61 44/2/61
f 97/5/2 45/5/2 95/5/2 62/21/2 99/21/2 100/90/2 101/91/2 102/92/2 103/93/2 104/94/2 105/95/2 106/96/2 107/97/2 108/98/2 109/99/2 110/100/2 111/101/2 112/102/2 113/103/2 114/104/2
f 114/105/25 115/106/25 98/89/25 97/88/25
f 44/5/4 98/5/4 115/104/4 116/103/4 117/102/4 118/101/4 119/100/4 120/99/4 121/98/4 122/97/4 123/96/4 124/95/4 125/94/4 126/93/4 127/92/4 128/91/4 129/90/4 130/21/26 93/21/20 96/5/4
f 93/5/20 130/5/26 99/5/27 62/5/62
f 99/1/29 130/2/29 129/107/29 100/108/29
f 100/105/63 129/106/63 128/109/63 101/110/63
f 101/110/64 128/109/64 127/111/64 102/112/64
f 102/112/65 127/111/65 126/113/65 103/114/65
f 103/68/66 126/67/66 125/65/66 104/66/66
f 104/66/67 125/65/67 124/63/67 105/64/67
f 105/64/68 124/63/68 123/61/68 106/62/68
f 106/62/69 123/61/69 122/59/69 107/60/69
f 107/60/70 122/59/70 121/57/70 108/58/70
f 108/58/71 121/57/71 120/55/71 109/56/71
f 109/56/72 120/55/72 119/53/72 110/54/72
f 110/54/73 119/53/73 118/52/73 111/51/73
f 111/114/74 118/113/74 117/111/74 112/112/74
f 112/112/42 117/111/42 116/109/42 113/110/42
f 113/110/43 116/109/43 115/106/43 114/105/43
f 131/158/46 132/159/46 133/160/46 134/161/46
f 132/162/3 135/163/3 136/164/3 133/165/3
f 135/158/45 137/166/45 138/167/45 136/161/45
f 137/162/21 131/168/21 134/169/21 138/165/21
f 134/170/2 133/171/2 136/172/2 138/173/2
f 137/170/4 135/171/4 132/174/4 131/175/4
usemtl concreto_asfalto.jpg_asfalto2.jpg
f 145/176/4 143/177/4 140/178/4 139/179/4
usemtl concreto_asfalto.jpg
f 139/180/46 140/181/46 141/182/46 142/183/46
f 140/180/75 143/181/75 144/182/75 141/183/75
f 143/180/45 145/181/45 146/182/45 144/183/45
f 145/180/21 139/181/21 142/182/21 146/183/21
f 142/180/2 141/181/2 144/182/2 146/183/2
usemtl concreto
f 1/184/4 2/185/4 3/186/4 4/187/4
