# Blender v2.76 (sub 0) OBJ File: ''
# www.blender.org
mtllib box.mtl
o Cube.001
v 0.500000 -0.500000 -0.500000
v -0.500000 -0.500000 -0.500000
v -0.500000 0.500000 -0.500000
v 0.500000 0.500000 -0.500000
v 0.499999 -0.500000 0.500000
v 0.500000 0.500000 0.500000
v -0.500000 0.500000 0.500000
v -0.500000 -0.499999 0.500000
vt 0.752500 0.185000
vt 0.252500 0.185000
vt 0.252500 0.685000
vt 0.752500 0.685000
vn 0.000000 0.000000 -1.000000
vn -0.000000 -0.000000 1.000000
vn -0.000000 -1.000000 0.000000
vn -1.000000 0.000000 0.000000
vn 0.000000 1.000000 0.000000
vn 1.000000 -0.000000 0.000000
usemtl Material.001
s 1
f 1/1/1 2/2/1 3/3/1 4/4/1
f 5/1/2 6/4/2 7/3/2 8/2/2
f 1/1/3 5/4/3 8/3/3 2/2/3
f 2/2/4 8/3/4 7/4/4 3/1/4
f 3/2/5 7/3/5 6/4/5 4/1/5
f 5/3/6 1/2/6 4/1/6 6/4/6
