# Blender v2.76 (sub 0) OBJ File: ''
# www.blender.org
mtllib centerRight.mtl
o center_r_link
v -0.511885 0.000000 0.299534
v -0.511885 0.000000 -0.572433
v -0.511885 -0.011147 -0.576590
v -0.511885 -0.490776 -0.397710
v -0.511885 -0.592143 -0.357267
v -0.511885 -0.629520 -0.328324
v -0.511885 -0.857071 -0.147147
v -0.511885 -0.914269 -0.017394
v -0.511885 -0.940478 0.055375
v -0.511885 -0.980020 0.286260
v -0.511885 -0.982302 0.299468
v -0.511885 -0.981924 0.299344
v -0.511885 -0.980935 0.299297
v 1.288115 0.000000 0.444271
v 1.288115 0.000000 -0.558357
v 0.595930 0.000000 -0.576540
v 0.583758 0.000000 -0.577390
v -0.248193 0.000000 -0.571824
v -0.261927 0.000000 -0.572491
v 1.288115 -0.966926 0.400488
v 1.288115 -0.899744 0.284353
v 1.288115 -0.853655 0.175188
v 1.288115 -0.853117 0.174546
v 1.288115 -0.852787 0.174048
v 1.288115 -0.783436 0.082380
v 1.288115 -0.739214 0.015152
v 1.288115 -0.727147 -0.000958
v 1.288115 -0.712790 -0.024873
v 1.288115 -0.656262 -0.083586
v 1.288115 -0.625778 -0.114067
v 1.288115 -0.577685 -0.162572
v 1.288115 -0.510813 -0.225888
v 1.288115 -0.501147 -0.234650
v 1.288115 -0.482808 -0.251997
v 1.288115 -0.427280 -0.300453
v 1.288115 -0.415606 -0.308876
v 1.288115 -0.324292 -0.384201
v 1.288115 -0.278370 -0.411692
v 1.288115 -0.200974 -0.466580
v 1.288115 -0.137603 -0.499475
v 1.288115 -0.011143 -0.564047
v 1.210669 -0.496996 -0.260460
v 1.033970 -0.531080 -0.275059
v 0.938686 -0.789720 -0.060415
v 1.068633 -0.766412 -0.049067
v 0.711154 -0.827882 -0.073494
v 0.405888 -0.855370 -0.093091
v 0.769528 -0.567286 -0.293694
v 1.195918 -0.736154 -0.035022
v -0.166424 -0.864839 -0.128401
v 0.146580 -0.587378 -0.327220
v 0.592380 -0.011144 -0.582324
v 0.715712 -0.941744 0.126831
v 0.859181 -0.929815 0.137257
v 0.573713 -1.016748 0.371034
v 0.434369 -1.022736 0.363293
v 0.483663 -0.957592 0.114103
v 0.225352 -1.022737 0.351681
v 0.183679 -0.962960 0.093950
v 0.016336 -1.016679 0.340069
v -0.353038 -0.949801 0.063726
v -0.255980 -0.011146 -0.576649
v 1.001904 -0.909372 0.150267
v 0.749183 -1.010759 0.378776
v 1.134372 -0.886625 0.162503
v 0.924653 -1.006522 0.386517
v 1.287111 -0.853863 0.175103
v 1.100124 -0.991838 0.394258
vt 0.564620 0.404288
vt 0.652355 0.407282
vt 0.021821 0.421700
vt 0.021821 0.421511
vt 0.285932 0.404322
vt 0.390440 0.401293
vt 0.494948 0.401294
vt 0.025790 0.426225
vt 0.925790 0.532557
vt 0.025790 0.637625
vt 0.025790 0.794865
vt 0.925790 0.573226
vt 0.025790 0.916693
vt 0.112084 0.916693
vt 0.925790 0.721680
vt 0.921821 0.501276
vt 0.021821 0.422194
vt 0.929821 0.474112
vt 0.660355 0.403376
vt 0.748090 0.405495
vt 0.835825 0.412837
vt 0.731233 0.303115
vt 0.796206 0.308789
vt 0.691480 0.401951
vt 0.619746 0.396738
vt 0.464834 0.286777
vt 0.617467 0.296576
vt 0.503721 0.390374
vt 0.353729 0.380298
vt 0.085371 0.365186
vt 0.178678 0.269122
vt 0.804206 0.308789
vt 0.867849 0.315812
vt 0.770841 0.408456
vt 0.699480 0.401951
vt 0.005947 0.259749
vt 0.005947 0.324626
vt 0.913947 0.332844
vt 0.913947 0.320886
vt 0.005947 0.361010
vt 0.913947 0.340899
vt 0.837075 0.414574
vt 0.913947 0.374513
vt 0.913947 0.420347
vt 0.913445 0.420874
vt 0.000000 0.000000
vt 0.651687 0.616273
vt 0.651687 0.283794
vt 0.422152 0.277764
vt 0.418116 0.277482
vt 0.142234 0.279328
vt 0.137680 0.279107
vt 0.054792 0.279126
vt 0.235079 0.581652
vt 0.562014 0.568256
vt 0.562140 0.568214
vt 0.562468 0.568199
vt 0.887754 0.568277
vt 0.887754 0.279126
vt 0.884057 0.277747
vt 0.725008 0.337065
vt 0.691394 0.350477
vt 0.679000 0.360074
vt 0.603542 0.420154
vt 0.584575 0.463181
vt 0.575883 0.487312
vt 0.562771 0.563876
vt 0.806956 0.570500
vt 0.887754 0.283794
vt 0.758418 0.609175
vt 0.567113 0.601755
vt 0.589391 0.563243
vt 0.604675 0.527043
vt 0.604853 0.526830
vt 0.604962 0.526665
vt 0.627960 0.496267
vt 0.642624 0.473974
vt 0.646626 0.468632
vt 0.651387 0.460701
vt 0.670132 0.441232
vt 0.680241 0.431124
vt 0.696189 0.415039
vt 0.718364 0.394043
vt 0.721569 0.391138
vt 0.727651 0.385385
vt 0.746064 0.369317
vt 0.749935 0.366524
vt 0.780216 0.341545
vt 0.795444 0.332429
vt 0.821109 0.314228
vt 0.842123 0.303319
vt 0.884059 0.281907
vt 0.925853 0.274455
vt 0.887130 0.239597
vt 0.925853 0.280291
vt 0.925853 0.246691
vt 0.798780 0.222554
vt 0.925853 0.325949
vt 0.925853 0.237521
vt 0.751138 0.093234
vt 0.925853 0.348909
vt 0.925853 0.232688
vt 0.816112 0.104888
vt 0.637309 0.074153
vt 0.798717 0.222554
vt 0.484676 0.060410
vt 0.666496 0.204451
vt 0.666559 0.204451
vt 0.925853 0.387608
vt 0.925853 0.199252
vt 0.925853 0.419293
vt 0.925853 0.431061
vt 0.879754 0.470583
vt 0.816112 0.463561
vt 0.925853 0.406808
vt 0.198520 0.055675
vt 0.355022 0.194405
vt 0.355085 0.194405
vt 0.577985 0.482522
vt 0.925853 0.482523
vt 0.925853 0.159963
vt 0.879754 0.120017
vt 0.925853 0.175205
vt 0.639588 0.551510
vt 0.711323 0.556723
vt 0.568589 0.673612
vt 0.498917 0.669741
vt 0.523564 0.545146
vt 0.394408 0.663935
vt 0.373572 0.535070
vt 0.289900 0.658129
vt 0.925853 0.475658
vt 0.925853 0.446302
vt 0.025790 0.637829
vt 0.025790 0.631225
vt 0.105213 0.519957
vt 0.025790 0.192023
vt 0.025790 0.173334
vt 0.577922 0.482522
vt 0.025790 0.242707
vt 0.153742 0.482521
vt 0.782684 0.563228
vt 0.656324 0.677483
vt 0.025790 0.059559
vt 0.025790 0.515782
vt 0.025790 0.482521
vt 0.778778 0.563228
vt 0.845012 0.569346
vt 0.740153 0.681353
vt 0.652418 0.677483
vt 0.921382 0.575646
vt 0.827888 0.685224
vt 0.921884 0.630271
vt 0.921884 0.575689
vt 0.921884 0.688339
vn -0.053200 0.276300 0.959600
vn 0.056700 -0.123900 -0.990700
vn -0.056000 -0.000100 0.998400
vn -0.080100 -0.045100 0.995800
vn -0.056600 0.208600 0.976400
vn -0.049400 0.102500 0.993500
vn 0.242200 -0.723700 -0.646200
vn 0.277600 -0.692800 -0.665600
vn 0.150500 -0.853200 -0.499400
vn 0.001200 -0.959300 -0.282300
vn -0.127800 -0.785700 -0.605300
vn 0.206700 -0.829000 -0.519600
vn 0.116000 -0.967200 -0.225800
vn 0.058100 -0.966900 -0.248600
vn 0.011500 -0.977300 -0.211400
vn -0.013700 -0.853800 -0.520400
vn 0.233700 -0.724800 -0.648100
vn 0.251500 -0.861600 -0.440900
vn 0.118000 -0.713600 -0.690500
vn -0.011800 -0.924200 -0.381700
vn 0.242900 -0.816400 -0.524000
vn 0.248900 -0.796400 -0.551100
vn -0.002800 -0.954900 -0.297000
vn 0.166200 -0.819400 -0.548700
vn 0.257900 -0.834000 -0.487800
vn 0.250700 -0.798500 -0.547300
vn 0.225900 -0.800500 -0.555200
vn 0.264900 -0.812800 -0.518800
vn 0.274700 -0.784600 -0.555800
vn 0.205800 -0.853800 -0.478300
vn 0.000000 1.000000 0.000000
vn 1.000000 0.000000 0.000000
vn -1.000000 0.000000 0.000000
vn 0.130300 -0.598300 -0.790600
vn 0.188800 -0.650200 -0.736000
vn 0.166700 -0.616400 -0.769600
vn 0.199900 -0.658300 -0.725700
vn 0.150400 -0.624200 -0.766600
vn 0.085600 -0.545300 -0.833900
vn 0.196100 -0.669900 -0.716100
vn 0.115700 -0.559900 -0.820400
vn 0.128600 -0.678500 -0.723300
vn 0.105800 -0.594900 -0.796800
vn 0.060600 -0.494900 -0.866800
vn 0.218200 -0.676700 -0.703200
vn 0.037500 -0.452900 -0.890800
vn 0.238200 -0.689100 -0.684400
vn 0.039900 -0.518000 -0.854500
vn 0.032600 0.002400 -0.999500
vn 0.035800 0.002600 -0.999400
vn 0.238000 -0.690100 -0.683500
vn 0.082100 -0.962800 -0.257300
vn 0.044100 -0.948500 -0.313600
vn 0.013200 -0.956000 -0.293000
vn -0.016200 -0.978300 -0.206700
vn -0.030900 -0.980100 -0.196000
vn 0.004200 -0.973600 -0.228300
vn 0.028800 -0.502600 -0.864000
vn 0.037300 -0.614700 -0.787900
vn 0.014400 -0.381700 -0.924200
vn 0.012800 -0.000600 -0.999900
vn 0.087300 -0.931000 -0.354500
vn -0.000200 -0.000000 -1.000000
vn 0.080500 -0.913100 -0.399800
vn 0.137200 -0.890800 -0.433200
vn 0.192600 -0.889000 -0.415400
vn 0.130200 -0.858200 -0.496500
vn 0.039200 0.450400 -0.891900
vn 0.023400 0.454700 -0.890400
vn 0.015100 0.414600 -0.909900
vn 0.010000 0.391400 -0.920200
vn 0.015900 0.356900 -0.934000
vn -0.000200 0.349400 -0.937000
usemtl WhiteBase.004
s off
f 55/1/1 64/2/1 12/3/1 11/4/1 60/5/1 58/6/1 56/7/1
f 13/8/2 20/9/2 11/10/2
f 11/11/3 20/12/3 1/13/3
f 1/14/4 20/12/4 14/15/4
f 64/2/5 20/16/5 13/17/5 12/3/5
f 20/18/6 64/19/6 66/20/6 68/21/6
s 1
f 44/22/7 45/23/8 54/24/9 53/25/10
f 47/26/11 46/27/12 57/28/13 59/29/14
f 53/25/10 57/28/13 46/27/12 44/22/7
f 47/26/11 59/29/14 61/30/15 50/31/16
f 45/32/8 49/33/17 63/34/18 54/35/9
f 7/36/19 50/31/16 61/30/15 8/37/20
f 27/38/21 63/34/18 49/33/17 28/39/22
f 8/37/20 61/30/15 9/40/23
f 26/41/24 65/42/25 63/34/18 27/38/21
f 25/43/26 65/42/25 26/41/24
f 24/44/27 67/45/28 65/42/25 25/43/26
usemtl WhiteBase.004_NONE
f 23/46/29 67/46/28 24/46/27
f 22/46/30 67/46/28 23/46/29
usemtl Blue.004
s off
f 14/47/31 15/48/31 16/49/31 17/50/31 18/51/31 19/52/31 2/53/31 1/54/31
f 11/55/32 12/56/32 13/57/32
f 1/58/33 2/59/33 3/60/33 4/61/33 5/62/33 6/63/33 7/64/33 8/65/33 9/66/33 10/67/33 11/68/33
f 15/69/32 14/70/32 20/71/32 21/72/32 22/73/32 23/74/32 24/75/32 25/76/32 26/77/32 27/78/32 28/79/32 29/80/32 30/81/32 31/82/32 32/83/32 33/84/32 34/85/32 35/86/32 36/87/32 37/88/32 38/89/32 39/90/32 40/91/32 41/92/32
s 1
f 35/93/34 42/94/35 36/95/36
f 34/96/37 42/94/35 35/93/34
f 36/95/36 42/94/35 43/97/38 37/98/39
f 33/99/40 44/100/7 42/94/35 34/96/37
f 37/98/39 43/97/38 38/101/41
f 32/102/42 45/103/8 44/100/7 33/99/40
f 44/100/7 46/104/12 43/105/38 42/94/35
f 46/104/12 47/106/11 48/107/43 43/105/38
f 38/101/41 43/97/38 48/108/43 39/109/44
f 31/110/45 45/103/8 32/102/42
f 39/109/44 48/108/43 40/111/46
f 30/112/47 49/113/17 45/114/8 31/115/45
f 48/107/43 47/106/11 50/116/16 51/117/48
f 40/111/46 48/108/43 51/118/48 52/119/49 41/120/50
f 29/121/51 49/122/17 30/123/47
f 53/124/10 54/125/9 55/126/52 56/127/53
f 57/128/13 53/124/10 56/127/53 58/129/54
f 59/130/14 57/128/13 58/129/54 60/131/55
f 28/132/22 49/113/17 29/133/51
f 59/130/14 60/131/55 11/134/56 10/135/57 61/136/15
f 5/137/58 51/117/48 50/116/16 6/138/59
f 52/139/49 51/117/48 5/137/58 4/140/60 62/141/61
f 54/125/9 63/142/18 64/143/62 55/126/52
f 6/138/59 50/116/16 7/144/19
f 9/145/23 61/136/15 10/135/57
f 3/146/63 62/141/61 4/140/60
f 63/147/18 65/148/25 66/149/64 64/150/62
f 65/148/25 67/151/28 68/152/65 66/149/64
f 21/153/66 68/152/65 67/151/28 22/154/30
f 20/155/67 68/152/65 21/153/66
usemtl Blue.004_NONE
f 52/46/49 16/46/68 15/46/69 41/46/50
f 16/46/68 52/46/49 17/46/70
f 17/46/70 52/46/49 62/46/61 18/46/71
f 18/46/71 62/46/61 19/46/72
f 19/46/72 62/46/61 3/46/63 2/46/73
