# Blender v2.76 (sub 0) OBJ File: ''
# www.blender.org
mtllib sail.mtl
o SailMain_Plane.002_SailMain_Plane.000
v -0.054460 -0.019121 0.389919
v -0.346006 -0.019121 0.387123
v -0.051410 -0.019120 0.995957
v -0.048361 -0.019120 1.601995
v -0.339907 -0.019120 1.599200
v -0.045311 -0.019120 2.208034
v -0.342957 -0.019120 0.993161
v -0.637553 -0.019121 0.384328
v -0.929099 -0.019121 0.381533
v -0.634503 -0.019120 0.990366
v -0.336857 -0.019120 2.205237
v -0.042261 -0.019120 2.814072
v -0.631453 -0.019120 1.596404
v -0.926049 -0.019120 0.987571
v -1.220646 -0.019121 0.378737
vt 0.000000 0.000000
vt 1.000000 0.000000
vt 1.000000 1.000000
vn 0.000000 1.000000 -0.000000
usemtl SailMtl.001
s off
f 1/1/1 2/2/1 3/3/1
f 4/1/1 5/2/1 6/3/1
f 4/1/1 7/2/1 5/3/1
f 8/1/1 9/2/1 10/3/1
f 3/1/1 7/2/1 4/3/1
f 3/1/1 2/2/1 7/3/1
f 2/1/1 8/2/1 7/3/1
f 6/1/1 11/2/1 12/3/1
f 6/1/1 5/2/1 11/3/1
f 5/1/1 13/2/1 11/3/1
f 5/1/1 10/2/1 13/3/1
f 5/1/1 7/2/1 10/3/1
f 7/1/1 8/2/1 10/3/1
f 10/1/1 14/2/1 13/3/1
f 10/1/1 9/2/1 14/3/1
f 9/1/1 15/2/1 14/3/1
o MastMain_Cylinder_MastMain_Cylinder.001
v -0.004852 -0.029366 1.405048
v 0.003593 -0.029366 1.409925
v 0.012040 -0.029366 1.405048
v 0.012040 -0.029366 1.395296
v 0.003593 -0.029366 1.390419
v -0.004852 -0.029366 1.395296
v -0.021977 -0.006873 0.001451
v -0.021976 -0.006873 2.949103
v -0.019976 0.003182 2.949103
v -0.019976 0.003182 0.001451
v -0.014281 0.011707 2.949103
v -0.014281 0.011707 0.001451
v -0.005756 0.017403 2.949103
v -0.005756 0.017403 0.001451
v 0.004299 0.019403 2.949103
v 0.004299 0.019403 0.001451
v 0.014354 0.017403 2.949103
v 0.014354 0.017403 0.001451
v 0.022879 0.011707 2.949103
v 0.022878 0.011707 0.001451
v 0.028574 0.003182 2.949103
v 0.028574 0.003182 0.001451
v 0.030574 -0.006873 2.949103
v 0.030574 -0.006873 0.001451
v 0.028574 -0.016928 2.949103
v 0.028574 -0.016928 0.001451
v 0.022879 -0.025452 2.949103
v 0.022878 -0.025452 0.001451
v 0.014354 -0.031148 2.949103
v 0.014354 -0.031148 0.001451
v 0.004299 -0.033148 2.949103
v 0.004299 -0.033148 0.001451
v -0.005756 -0.031148 2.949103
v -0.005756 -0.031148 0.001451
v -0.014281 -0.025452 2.949103
v -0.014281 -0.025452 0.001451
v -0.019976 -0.016928 2.949103
v -0.019976 -0.016928 0.001451
vt 0.500000 1.000000
vt 0.933013 0.750000
vt 0.933013 0.250000
vt 0.500000 0.000000
vt 0.066987 0.250000
vt 0.066987 0.750000
vt 0.000000 0.000000
vt 1.000000 0.000000
vt 1.000000 1.000000
vt 0.000000 1.000000
vt 0.691342 0.961940
vt 0.853553 0.853553
vt 0.961940 0.691342
vt 1.000000 0.500000
vt 0.961940 0.308658
vt 0.853553 0.146447
vt 0.691342 0.038060
vt 0.308658 0.038060
vt 0.146447 0.146446
vt 0.038060 0.308658
vt 0.000000 0.500000
vt 0.038060 0.691342
vt 0.146447 0.853554
vt 0.308659 0.961940
vn 0.000000 1.000000 -0.000000
vn -0.746200 0.000000 -0.665700
vn -0.746200 0.000000 0.665700
vn -0.689400 0.285500 0.665700
vn -0.689400 0.285500 -0.665700
vn -0.527700 0.527600 0.665700
vn -0.527700 0.527600 -0.665700
vn -0.285500 0.689400 0.665700
vn -0.285600 0.689400 -0.665700
vn 0.000000 0.746200 0.665700
vn -0.000000 0.746200 -0.665700
vn 0.285600 0.689400 0.665700
vn 0.285600 0.689400 -0.665700
vn 0.527700 0.527600 0.665700
vn 0.527700 0.527600 -0.665700
vn 0.689400 0.285500 0.665700
vn 0.689400 0.285500 -0.665700
vn 0.746200 0.000000 0.665700
vn 0.746200 0.000000 -0.665700
vn 0.689400 -0.285600 0.665700
vn 0.689400 -0.285600 -0.665700
vn 0.527700 -0.527600 0.665700
vn 0.527600 -0.527600 -0.665700
vn 0.285600 -0.689400 0.665700
vn 0.285600 -0.689400 -0.665700
vn 0.000000 -0.746200 0.665700
vn -0.000000 -0.746200 -0.665700
vn -0.285500 -0.689400 0.665700
vn -0.285600 -0.689400 -0.665700
vn -0.527700 -0.527600 0.665700
vn -0.527700 -0.527600 -0.665700
vn -0.689400 -0.285600 0.665700
vn -0.689400 -0.285600 -0.665700
usemtl WhiteBase.002
s off
f 16/4/2 17/5/2 18/6/2 19/7/2 20/8/2 21/9/2
s 1
f 22/10/3 23/11/4 24/12/5 25/13/6
f 25/10/6 24/11/5 26/12/7 27/13/8
f 27/10/8 26/11/7 28/12/9 29/13/10
f 29/10/10 28/11/9 30/12/11 31/13/12
f 31/10/12 30/11/11 32/12/13 33/13/14
f 33/10/14 32/11/13 34/12/15 35/13/16
f 35/10/16 34/11/15 36/12/17 37/13/18
f 37/10/18 36/11/17 38/12/19 39/13/20
f 39/10/20 38/11/19 40/12/21 41/13/22
f 41/10/22 40/11/21 42/12/23 43/13/24
f 43/10/24 42/11/23 44/12/25 45/13/26
f 45/10/26 44/11/25 46/12/27 47/13/28
f 47/10/28 46/11/27 48/12/29 49/13/30
f 49/10/30 48/11/29 50/12/31 51/13/32
f 24/4/5 23/14/4 52/15/33 50/16/31 48/17/29 46/18/27 44/19/25 42/20/23 40/7/21 38/21/19 36/22/17 34/23/15 32/24/13 30/25/11 28/26/9 26/27/7
f 53/10/34 52/11/33 23/12/4 22/13/3
f 51/10/32 50/11/31 52/12/33 53/13/34
f 22/4/3 25/14/6 27/15/8 29/16/10 31/17/12 33/18/14 35/19/16 37/20/18 39/7/20 41/21/22 43/22/24 45/23/26 47/24/28 49/25/30 51/26/32 53/27/34
o Boom_Cylinder.001_Boom_Cylinder.000
v -0.027403 -0.011801 0.321511
v -1.285555 -0.011801 0.321510
v -1.285555 -0.005390 0.322785
v -0.027403 -0.005390 0.322787
v -1.285555 0.000045 0.326417
v -0.027403 0.000045 0.326418
v -1.285555 0.003677 0.331852
v -0.027403 0.003677 0.331853
v -1.285555 0.004953 0.338263
v -0.027403 0.004953 0.338264
v -1.285555 0.003677 0.344674
v -0.027403 0.003677 0.344676
v -1.285555 0.000045 0.350109
v -0.027403 0.000045 0.350111
v -1.285555 -0.005390 0.353741
v -0.027403 -0.005390 0.353743
v -1.285555 -0.011801 0.355016
v -0.027403 -0.011801 0.355018
v -1.285555 -0.018212 0.353741
v -0.027403 -0.018212 0.353743
v -1.285555 -0.023647 0.350109
v -0.027403 -0.023647 0.350111
v -1.285555 -0.027279 0.344674
v -0.027403 -0.027279 0.344676
v -1.285555 -0.028554 0.338263
v -0.027403 -0.028554 0.338264
v -1.285555 -0.027279 0.331852
v -0.027403 -0.027279 0.331853
v -1.285555 -0.023647 0.326417
v -0.027403 -0.023647 0.326418
v -1.285555 -0.018212 0.322785
v -0.027403 -0.018212 0.322787
vt 0.000000 0.000000
vt 1.000000 0.000000
vt 1.000000 1.000000
vt 0.000000 1.000000
vt 0.500000 1.000000
vt 0.691342 0.961940
vt 0.853553 0.853553
vt 0.961940 0.691342
vt 1.000000 0.500000
vt 0.961940 0.308658
vt 0.853553 0.146447
vt 0.691342 0.038060
vt 0.500000 0.000000
vt 0.308658 0.038060
vt 0.146447 0.146446
vt 0.038060 0.308658
vt 0.000000 0.500000
vt 0.038060 0.691342
vt 0.146447 0.853554
vt 0.308659 0.961940
vn 0.665700 0.000000 -0.746200
vn -0.665700 -0.000000 -0.746200
vn -0.665700 0.285600 -0.689400
vn 0.665700 0.285600 -0.689400
vn -0.665700 0.527600 -0.527700
vn 0.665700 0.527600 -0.527700
vn -0.665700 0.689400 -0.285600
vn 0.665700 0.689400 -0.285600
vn -0.665700 0.746200 -0.000000
vn 0.665700 0.746200 -0.000000
vn -0.665700 0.689400 0.285600
vn 0.665700 0.689400 0.285600
vn -0.665700 0.527600 0.527600
vn 0.665700 0.527600 0.527600
vn -0.665700 0.285600 0.689400
vn 0.665700 0.285600 0.689400
vn -0.665700 -0.000000 0.746200
vn 0.665700 0.000000 0.746200
vn -0.665700 -0.285600 0.689400
vn 0.665700 -0.285600 0.689400
vn -0.665700 -0.527600 0.527600
vn 0.665700 -0.527600 0.527600
vn -0.665700 -0.689400 0.285600
vn 0.665700 -0.689400 0.285600
vn -0.665700 -0.746200 -0.000000
vn 0.665700 -0.746200 -0.000000
vn -0.665700 -0.689400 -0.285600
vn 0.665700 -0.689400 -0.285600
vn -0.665700 -0.527600 -0.527700
vn 0.665700 -0.527600 -0.527700
vn -0.665700 -0.285600 -0.689400
vn 0.665700 -0.285600 -0.689400
usemtl WhiteBase.002
s 1
f 54/28/35 55/29/36 56/30/37 57/31/38
f 57/28/38 56/29/37 58/30/39 59/31/40
f 59/28/40 58/29/39 60/30/41 61/31/42
f 61/28/42 60/29/41 62/30/43 63/31/44
f 63/28/44 62/29/43 64/30/45 65/31/46
f 65/28/46 64/29/45 66/30/47 67/31/48
f 67/28/48 66/29/47 68/30/49 69/31/50
f 69/28/50 68/29/49 70/30/51 71/31/52
f 71/28/52 70/29/51 72/30/53 73/31/54
f 73/28/54 72/29/53 74/30/55 75/31/56
f 75/28/56 74/29/55 76/30/57 77/31/58
f 77/28/58 76/29/57 78/30/59 79/31/60
f 79/28/60 78/29/59 80/30/61 81/31/62
f 81/28/62 80/29/61 82/30/63 83/31/64
f 56/32/37 55/33/36 84/34/65 82/35/63 80/36/61 78/37/59 76/38/57 74/39/55 72/40/53 70/41/51 68/42/49 66/43/47 64/44/45 62/45/43 60/46/41 58/47/39
f 85/28/66 84/29/65 55/30/36 54/31/35
f 83/28/64 82/29/63 84/30/65 85/31/66
f 54/32/35 57/33/38 59/34/40 61/35/42 63/36/44 65/37/46 67/38/48 69/39/50 71/40/52 73/41/54 75/42/56 77/43/58 79/44/60 81/45/62 83/46/64 85/47/66
