# Blender v2.76 (sub 0) OBJ File: ''
# www.blender.org
mtllib backRight.mtl
o back_r_link
v -1.664448 -0.442557 0.176511
v -0.871108 -0.057829 0.247181
v -1.695776 0.390000 0.183055
v -0.865778 -0.507130 0.235143
v -0.876431 0.389425 0.259203
v -1.579109 0.388849 -0.197724
v -1.546010 -0.391437 -0.206799
v -1.600052 -0.432547 -0.015940
v -1.637694 0.378381 -0.006190
v -1.579060 0.390000 -0.197737
v -1.636347 0.390000 -0.009138
v -1.637168 0.390000 -0.006326
v -0.557982 -0.535809 0.257493
v -0.020823 -0.581720 0.298781
v -0.011885 -0.580935 0.299297
v -0.011885 0.390000 0.299809
v -0.011885 -0.581924 0.299344
v -0.011885 -0.582302 0.299468
v -0.839459 -0.417694 -0.186023
v -0.884442 -0.478248 0.011812
v -0.296173 -0.450678 -0.162574
v -0.427243 -0.516099 0.033539
v -0.011885 -0.540478 0.055375
v -0.011885 -0.514269 -0.017394
v -0.011885 -0.457071 -0.147147
v -1.509591 0.365570 -0.351096
v -1.498657 -0.197853 -0.397658
v -1.461938 0.388850 -0.572469
v -1.509153 0.390000 -0.352961
v -1.578951 0.390000 -0.198116
v -1.462010 0.390000 -0.572126
v -1.694740 0.390000 0.179392
v -0.011885 0.390000 -0.576162
v -0.011885 -0.580020 0.286260
v -0.011885 -0.229520 -0.328324
v -0.011885 -0.192143 -0.357267
v -0.011885 -0.090776 -0.397710
v -0.011885 0.388853 -0.576590
v -0.741117 0.390000 -0.575994
v -0.742521 0.390000 -0.576033
v -1.460559 0.390000 -0.572088
v -0.775589 -0.183360 -0.382662
v -0.066179 -0.192536 -0.359745
v -0.742454 0.388851 -0.576422
vt 0.569509 0.595909
vt 0.002642 0.334177
vt 0.591541 0.000398
vt 0.005130 0.652041
vt 0.581145 0.000104
vt 0.000104 0.016313
vt 0.000000 0.000000
vt 0.870365 0.290676
vt 0.636366 0.271338
vt 0.555967 0.350605
vt 0.880033 0.354374
vt 0.880033 0.198736
vt 0.880511 0.289901
vt 0.880511 0.354211
vt 0.880511 0.198879
vt 0.534737 0.509800
vt 0.880511 0.512517
vt 0.875685 0.433921
vt 0.538894 0.429872
vt 0.880511 0.433865
vt 0.880511 0.510996
vt 0.880511 0.197203
vt 0.880511 0.561007
vt 0.477266 0.560795
vt 0.476855 0.560814
vt 0.476698 0.560866
vt 0.477646 0.555380
vt 0.494068 0.459490
vt 0.504953 0.429268
vt 0.528709 0.375379
vt 0.623214 0.300134
vt 0.638737 0.288113
vt 0.680837 0.271317
vt 0.880034 0.197025
vt 0.713601 0.561007
vt 0.713601 0.197203
vt 0.410740 0.197272
vt 0.410157 0.197256
vt 0.111944 0.198895
vt 0.111341 0.198879
vt 0.091762 0.289901
vt 0.062774 0.354211
vt 0.062729 0.354368
vt 0.038936 0.432697
vt 0.038595 0.433865
vt 0.014685 0.510996
vt 0.014255 0.512517
vt 0.354542 0.544143
vt 0.396423 0.360339
vt 0.369897 0.263017
vt 0.076455 0.273922
vt 0.096121 0.354320
vt 0.691052 0.356529
vt 0.595532 0.249318
vt 0.410185 0.597988
vt 0.111371 0.597987
vt 0.351215 0.441397
vt 0.358966 0.534150
vt 0.027266 0.509800
vt 0.054010 0.429872
vt 0.541097 0.450421
vt 0.486799 0.543433
vt 0.713601 0.597989
vt 0.713601 0.398791
vt 0.713601 0.246663
vt 0.713601 0.341168
vt 0.713601 0.459490
vt 0.713601 0.555380
vt 0.709889 0.560580
vt 0.713601 0.356692
vt 0.694425 0.401138
vt 0.304282 0.396600
vt 0.283727 0.492030
vt 0.689191 0.496905
vt 0.695000 0.401132
vt 0.695000 0.495431
vt 0.042111 0.491435
vt 0.196009 0.477095
vt 0.464588 0.454140
vt 0.469058 0.454533
vt 0.469058 0.940000
vt 0.039446 0.716085
vt 0.036785 0.939713
vt 0.554974 0.707030
vt 0.581995 0.611601
vt 0.935271 0.621989
vt 0.912779 0.720906
vt 0.326914 0.663713
vt 0.261378 0.761770
vt 0.032779 0.750906
vt 0.055271 0.651989
vt 0.469058 0.772687
vt 0.469058 0.736303
vt 0.469058 0.671426
vn -0.083400 -0.011000 0.996500
vn -0.075400 -0.027600 0.996800
vn -0.092500 -0.027900 0.995300
vn -0.959200 0.040100 -0.280000
vn -0.052700 0.311300 0.948800
vn -0.061700 0.047400 0.997000
vn -0.944100 -0.017300 -0.329100
vn -0.813000 -0.113400 -0.571200
vn -0.977600 -0.001600 -0.210600
vn -0.911600 -0.015000 -0.410900
vn -0.977600 0.001500 -0.210300
vn -0.951600 -0.036900 -0.305200
vn -0.954800 0.031700 -0.295500
vn 1.000000 -0.000000 0.000000
vn -0.000000 1.000000 0.000400
vn 0.010900 -0.490600 -0.871300
vn -0.246000 -0.803300 -0.542400
vn -0.322400 -0.786400 -0.526900
vn 0.012000 -0.514100 -0.857700
vn -0.027800 -0.507100 -0.861400
vn 0.130000 -0.686800 -0.715100
vn 0.008600 0.003700 -1.000000
vn 0.011900 -0.000900 -0.999900
vn -0.001800 -0.951600 -0.307300
vn -0.073300 -0.990600 -0.115100
vn -0.066600 -0.992700 -0.100200
vn -0.024400 -0.967400 -0.251900
vn 0.035100 -0.948700 -0.314200
vn -0.073000 -0.988200 -0.134500
vn 0.006500 0.006900 -1.000000
vn 0.017200 -0.341600 -0.939700
vn -0.087300 -0.852100 -0.516000
vn 0.031700 -0.619700 -0.784200
vn -0.091100 -0.975400 -0.200700
vn -0.099000 -0.988600 -0.113400
vn -0.094200 -0.976000 -0.196500
vn 0.043200 -0.497000 -0.866700
vn -0.960400 0.036900 -0.276200
vn 0.001700 0.312800 -0.949800
vn 0.025500 0.286900 -0.957600
vn 0.010000 0.321100 -0.947000
vn 0.006000 0.343100 -0.939300
vn -0.000200 0.349500 -0.937000
vn -0.051000 -0.984100 -0.170000
vn -0.957100 -0.039200 -0.287200
vn -0.933500 -0.092600 -0.346400
vn -0.956200 0.037200 -0.290400
vn -0.066100 -0.009500 0.997800
vn -0.046900 -0.027400 0.998500
vn -0.024300 -0.932300 -0.360800
usemtl Wood_woodhighquality1.jpg.002
s off
f 1/1/1 2/2/1 3/3/1
f 4/4/2 2/2/2 1/1/2
f 3/5/3 2/2/3 5/6/3
usemtl WhiteBase.003
f 11/7/4 9/7/4 12/7/4
f 17/7/5 14/7/5 18/7/5
f 15/7/6 14/7/6 17/7/6
usemtl Blue.003
f 26/8/7 27/9/8 7/10/7 6/11/7
f 28/12/9 27/9/9 26/8/9
f 29/13/10 26/8/10 6/11/10 30/14/10
f 31/15/11 28/12/11 26/8/11 29/13/11
f 1/16/12 3/17/12 9/18/12 8/19/12
f 12/20/13 9/18/13 3/17/13 32/21/13
f 33/22/14 16/23/14 15/24/14 17/25/14 18/26/14 34/27/14 23/28/14 24/29/14 25/30/14 35/31/14 36/32/14 37/33/14 38/34/14
f 16/35/15 33/36/15 39/37/15 40/38/15 41/39/15 31/40/15 29/41/15 30/42/15 10/43/15 11/44/15 12/45/15 32/46/15 3/47/15 5/48/15
s 1
f 42/49/16 19/50/17 7/51/18 27/52/19
f 19/50/17 42/49/16 43/53/20 21/54/21
f 44/55/22 42/49/16 27/52/19 28/56/23
f 20/57/24 4/58/25 1/59/26 8/60/27
f 22/61/28 13/62/29 4/58/25 20/57/24
f 42/49/16 44/55/22 38/63/30 37/64/31 43/53/20
f 25/65/32 21/54/21 43/53/20 35/66/33
f 13/62/29 22/61/28 23/67/34 34/68/35 14/69/36
f 35/66/33 43/53/20 36/70/37
f 36/70/37 43/53/20 37/64/31
usemtl Blue.003_NONE
s off
f 30/7/38 6/7/38 10/7/38
s 1
f 41/7/39 28/7/23 31/7/40
f 40/7/41 44/7/22 28/7/23 41/7/39
f 39/7/42 44/7/22 40/7/41
f 44/7/22 39/7/42 33/7/43 38/7/30
f 18/7/44 14/7/36 34/7/35
usemtl white
s off
f 6/71/45 7/72/46 8/73/45 9/74/45
f 10/75/47 6/71/47 9/74/47 11/76/47
f 4/77/48 13/78/48 14/79/48 15/80/48 16/81/48 2/82/48
f 16/81/49 5/83/49 2/82/49
s 1
f 8/84/27 7/85/18 19/86/17 20/87/24
f 21/88/21 22/89/28 20/90/24 19/91/17
f 23/92/34 22/89/28 21/88/21 24/93/50
f 24/93/50 21/88/21 25/94/32
