# Blender v2.76 (sub 0) OBJ File: ''
# www.blender.org
mtllib centerRight.mtl
o centerRight_Cabin_Plane.001_Windows.004
v 1.288115 -0.427280 -0.300453
v 1.210669 -0.496996 -0.260460
v 1.288115 -0.415606 -0.308876
v 1.288115 -0.482808 -0.251997
v 1.033970 -0.531080 -0.275059
v 1.288115 -0.324292 -0.384201
v 1.288115 -0.501147 -0.234650
v 0.938686 -0.789720 -0.060415
v 0.711154 -0.827882 -0.073494
v 1.288115 -0.278370 -0.411692
v 1.288115 -0.510813 -0.225888
v 1.068633 -0.766412 -0.049067
v 0.405888 -0.855370 -0.093091
v 0.769528 -0.567286 -0.293694
v 1.288115 -0.200974 -0.466580
v 1.288115 -0.577685 -0.162572
v 0.715712 -0.941744 0.126831
v 0.483663 -0.957592 0.114103
v 0.183679 -0.962960 0.093950
v 1.288115 -0.137603 -0.499475
v 1.288115 -0.625778 -0.114067
v 1.195918 -0.736154 -0.035022
v 0.859181 -0.929815 0.137257
v -0.166424 -0.864839 -0.128401
v 0.146580 -0.587378 -0.327220
v 0.592380 -0.011144 -0.582324
v 1.288115 -0.011143 -0.564047
v 1.288115 -0.656262 -0.083586
v 0.434369 -1.022736 0.363293
v 0.225352 -1.022737 0.351681
v 0.016336 -1.016679 0.340069
v -0.353038 -0.949801 0.063726
v 0.595930 0.000000 -0.576540
v 1.288115 0.000000 -0.558357
v 1.288115 -0.712790 -0.024873
v 1.001904 -0.909372 0.150267
v 0.573713 -1.016748 0.371034
v -0.511885 -0.857071 -0.147147
v -0.511885 -0.914269 -0.017394
v -0.511885 -0.592143 -0.357267
v -0.511885 -0.629520 -0.328324
v -0.255980 -0.011146 -0.576649
v 0.583758 0.000000 -0.577390
v 1.288115 -0.727147 -0.000958
v 0.749183 -1.010759 0.378776
v -0.511885 -0.980020 0.286260
v -0.511885 -0.982302 0.299468
v -0.511885 -0.940478 0.055375
v -0.511885 -0.490776 -0.397710
v -0.248193 0.000000 -0.571824
v 1.288115 -0.739214 0.015152
v 1.134372 -0.886625 0.162503
v -0.511885 -0.981924 0.299344
v -0.511885 -0.011147 -0.576590
v -0.261927 0.000000 -0.572491
v 1.288115 -0.783436 0.082380
v 1.288115 -0.869288 0.405438
v 1.288115 -0.822772 0.403234
v -0.511885 -0.980935 0.299297
v -0.511885 0.000000 -0.572433
v 1.288115 -0.852787 0.174048
v 1.287111 -0.853863 0.175103
v 0.924653 -1.006522 0.386517
v 1.100124 -0.991838 0.394258
v 1.288115 -0.912202 0.404336
v 1.288115 -0.768271 0.403007
v -0.511885 -0.558136 0.297530
v 1.288115 -0.853117 0.174546
v 1.288115 -0.966926 0.400488
v 1.288115 -0.727733 0.404129
v -0.511885 -0.243655 0.306237
v 1.288115 -0.853655 0.175188
v 1.288115 -0.899744 0.284353
v 1.288115 -0.686934 0.403007
v -0.339297 0.000000 0.307643
v -0.511885 0.000000 0.299534
v 1.288115 -0.390026 0.422866
v 0.031790 0.000000 0.339865
v 1.288115 0.000000 0.444271
vt 0.000000 0.000000
vt 0.001866 0.236032
vt 0.000241 0.030426
vt 0.000009 0.001485
vt 0.000067 0.010560
vt 0.000057 0.008870
vn -1.000000 0.000000 0.000000
vn 0.000000 1.000000 0.000000
vn 1.000000 -0.000000 0.000000
vn 0.130400 -0.598300 -0.790600
vn 0.188800 -0.650200 -0.736000
vn 0.166700 -0.616400 -0.769600
vn 0.199900 -0.658300 -0.725700
vn 0.150400 -0.624200 -0.766600
vn 0.085600 -0.545300 -0.833900
vn 0.196100 -0.669900 -0.716100
vn 0.242200 -0.723800 -0.646200
vn 0.115700 -0.559900 -0.820400
vn 0.128600 -0.678500 -0.723300
vn 0.277600 -0.692800 -0.665600
vn 0.206700 -0.829100 -0.519600
vn -0.127800 -0.785700 -0.605300
vn 0.105800 -0.594900 -0.796800
vn 0.060600 -0.494900 -0.866800
vn 0.218200 -0.676700 -0.703200
vn 0.037500 -0.452900 -0.890800
vn 0.238200 -0.689100 -0.684400
vn 0.233700 -0.724800 -0.648100
vn -0.013700 -0.853800 -0.520400
vn 0.039900 -0.518000 -0.854500
vn 0.032600 0.002400 -0.999500
vn 0.035800 0.002500 -0.999400
vn 0.238000 -0.690100 -0.683500
vn 0.001200 -0.959300 -0.282300
vn 0.150500 -0.853200 -0.499400
vn 0.082100 -0.962800 -0.257300
vn 0.044100 -0.948500 -0.313600
vn 0.116000 -0.967200 -0.225800
vn 0.013200 -0.956000 -0.293000
vn 0.058100 -0.966900 -0.248600
vn -0.016200 -0.978300 -0.206700
vn 0.039200 0.450400 -0.892000
vn 0.023400 0.454600 -0.890400
vn 0.248900 -0.796400 -0.551100
vn -0.030900 -0.980100 -0.196000
vn 0.004200 -0.973600 -0.228300
vn 0.011500 -0.977300 -0.211400
vn 0.028800 -0.502600 -0.864000
vn 0.037300 -0.614700 -0.787900
vn 0.014400 -0.381700 -0.924200
vn 0.012800 -0.000600 -0.999900
vn 0.015200 0.414500 -0.909900
vn 0.251500 -0.861600 -0.440900
vn 0.087300 -0.931000 -0.354500
vn 0.118000 -0.713600 -0.690500
vn 0.010000 0.391300 -0.920200
vn -0.002800 -0.954900 -0.297000
vn -0.000200 -0.000000 -1.000000
vn 0.015900 0.356900 -0.934000
vn 0.257900 -0.834000 -0.487800
vn 0.080500 -0.913000 -0.399800
vn -0.000200 0.349400 -0.937000
vn 0.264900 -0.812900 -0.518800
vn 0.137200 -0.890800 -0.433200
vn 0.130200 -0.858200 -0.496500
vn 0.192600 -0.889000 -0.415400
vn 0.205800 -0.853800 -0.478300
vn -0.053200 0.276300 0.959600
vn -0.061700 0.047200 0.997000
vn -0.042700 -0.024700 0.998800
vn -0.058000 0.004200 0.998300
vn -0.023800 -0.070100 0.997300
vn -0.061700 -0.027600 0.997700
vn -0.046900 0.027500 0.998500
vn -0.086300 -0.066500 0.994000
vn -0.082700 -0.054600 0.995100
vn -0.011800 -0.924200 -0.381700
vn 0.242900 -0.816400 -0.524000
vn 0.166200 -0.819400 -0.548700
vn 0.250700 -0.798500 -0.547300
vn 0.225900 -0.800500 -0.555200
vn 0.274700 -0.784600 -0.555800
usemtl Blue.004
s off
f 76/1/1 60/1/1 54/1/1 49/1/1 40/1/1 41/1/1 38/1/1 39/1/1 48/1/1 46/1/1 47/1/1 53/1/1 59/1/1 67/1/1 71/1/1
f 79/1/2 34/1/2 33/1/2 43/1/2 50/1/2 55/1/2 60/1/2 76/1/2 75/1/2 78/1/2
f 34/1/3 79/1/3 77/1/3 74/1/3 70/1/3 66/1/3 58/1/3 57/1/3 65/1/3 69/1/3 73/1/3 72/1/3 68/1/3 61/1/3 56/1/3 51/1/3 44/1/3 35/1/3 28/1/3 21/1/3 16/1/3 11/1/3 7/1/3 4/1/3 1/1/3 3/1/3 6/1/3 10/1/3 15/1/3 20/1/3 27/1/3
s 1
f 1/1/4 2/1/5 3/1/6
f 4/1/7 2/1/5 1/1/4
f 3/1/6 2/1/5 5/1/8 6/1/9
f 7/1/10 8/1/11 2/1/5 4/1/7
f 6/1/9 5/1/8 10/1/12
f 11/1/13 12/1/14 8/1/11 7/1/10
f 8/1/11 9/1/15 5/1/8 2/1/5
f 9/1/15 13/1/16 14/1/17 5/1/8
f 10/1/12 5/1/8 14/1/17 15/1/18
f 16/1/19 12/1/14 11/1/13
f 15/1/18 14/1/17 20/1/20
f 21/1/21 22/1/22 12/1/14 16/1/19
f 14/1/17 13/1/16 24/1/23 25/1/24
f 20/1/20 14/1/17 25/1/24 26/1/25 27/1/26
f 28/1/27 22/1/22 21/1/21
f 17/1/28 23/1/29 37/1/30 29/1/31
f 18/1/32 17/1/28 29/1/31 30/1/33
f 19/1/34 18/1/32 30/1/33 31/1/35
f 26/1/25 33/1/36 34/1/37 27/1/26
f 35/1/38 22/1/22 28/1/27
f 19/1/34 31/1/35 47/1/39 46/1/40 32/1/41
f 40/1/42 25/1/24 24/1/23 41/1/43
f 26/1/25 25/1/24 40/1/42 49/1/44 42/1/45
f 33/1/36 26/1/25 43/1/46
f 23/1/29 36/1/47 45/1/48 37/1/30
f 41/1/43 24/1/23 38/1/49
f 43/1/46 26/1/25 42/1/45 50/1/50
f 48/1/51 32/1/41 46/1/40
f 54/1/52 42/1/45 49/1/44
f 50/1/50 42/1/45 55/1/53
f 36/1/47 52/1/54 63/1/55 45/1/48
f 55/1/53 42/1/45 54/1/52 60/1/56
f 52/1/54 62/1/57 64/1/58 63/1/55
f 69/1/59 64/1/58 73/1/60
f 73/1/60 64/1/58 62/1/57 72/1/61
usemtl WhiteBase.004
s off
f 37/1/62 45/1/62 53/1/62 47/1/62 31/1/62 30/1/62 29/1/62
f 45/1/63 57/1/63 58/1/63 59/1/63 53/1/63
f 57/1/64 45/1/64 63/1/64 64/1/64 65/1/64
f 59/1/65 58/1/65 66/1/65 67/1/65
f 65/1/66 64/1/66 69/1/66
f 67/2/67 66/3/67 70/1/67 71/1/67
f 71/1/68 70/1/68 74/4/68 75/5/68 76/6/68
f 75/1/69 74/1/69 77/1/69 78/1/69
f 78/1/70 77/1/70 79/1/70
s 1
f 8/1/11 12/1/14 23/1/29 17/1/28
f 13/1/16 9/1/15 18/1/32 19/1/34
f 17/1/28 18/1/32 9/1/15 8/1/11
f 13/1/16 19/1/34 32/1/41 24/1/23
f 12/1/14 22/1/22 36/1/47 23/1/29
f 38/1/49 24/1/23 32/1/41 39/1/71
f 44/1/72 36/1/47 22/1/22 35/1/38
f 39/1/71 32/1/41 48/1/51
f 51/1/73 52/1/54 36/1/47 44/1/72
f 56/1/74 52/1/54 51/1/73
f 61/1/75 62/1/57 52/1/54 56/1/74
f 68/1/76 62/1/57 61/1/75
f 72/1/61 62/1/57 68/1/76
