# Blender v2.76 (sub 0) OBJ File: ''
# www.blender.org
mtllib frontRight.mtl
o frontRight_Cabin_Plane.001_Windows.006
v 1.288115 -0.415606 -0.308877
v 1.672980 -0.011142 -0.549481
v 1.750394 -0.011142 -0.539171
v 1.288115 -0.427280 -0.300453
v 1.288115 -0.324292 -0.384201
v 1.738016 0.000000 -0.532779
v 1.662378 0.000000 -0.542853
v 1.316652 -0.477580 -0.248879
v 1.288115 -0.482808 -0.251997
v 1.288115 -0.278370 -0.411692
v 1.556860 -0.011142 -0.556174
v 1.740033 0.000000 -0.532237
v 1.659286 0.000000 -0.543600
v 1.830388 -0.011142 -0.526226
v 1.288115 -0.501147 -0.234650
v 1.288115 -0.200974 -0.466580
v 1.545655 0.000000 -0.550150
v 1.818116 0.000000 -0.519601
v 1.430695 -0.455083 -0.236307
v 1.288115 -0.510813 -0.225889
v 1.288115 -0.137603 -0.499475
v 1.440740 -0.011143 -0.560038
v 1.541086 0.000000 -0.550915
v 1.820356 0.000000 -0.518950
v 1.288115 -0.577684 -0.162572
v 1.910381 -0.011142 -0.509264
v 1.288115 -0.011143 -0.564047
v 1.427291 0.000000 -0.554701
v 1.898342 0.000000 -0.502413
v 1.288115 -0.625777 -0.114067
v 1.550485 -0.428908 -0.221786
v 1.288115 0.000000 -0.558357
v 1.900782 0.000000 -0.501597
v 1.288115 -0.656262 -0.083586
v 1.990375 -0.011141 -0.484254
v 1.978644 0.000000 -0.477254
v 1.325574 -0.703297 -0.020750
v 1.288115 -0.712790 -0.024873
v 1.658673 -0.404771 -0.207896
v 1.980987 0.000000 -0.476432
v 1.288115 -0.727147 -0.000958
v 2.070369 -0.011141 -0.453260
v 2.058717 0.000000 -0.446315
v 1.461199 -0.667266 -0.007823
v 1.288115 -0.739214 0.015152
v 1.758602 -0.380360 -0.188508
v 2.060961 0.000000 -0.445271
v 1.288115 -0.783436 0.082380
v 2.114237 -0.011141 -0.432042
v 2.103506 0.000000 -0.424693
v 1.288115 -0.852787 0.174048
v 1.585530 -0.632037 0.009471
v 1.872996 -0.349790 -0.166082
v 2.106301 0.000000 -0.423292
v 1.288115 -0.853117 0.174546
v 2.158104 -0.011141 -0.406812
v 2.148724 0.000000 -0.398892
v 1.451281 -0.819812 0.188962
v 1.288115 -0.853655 0.175188
v 1.732064 -0.586851 0.034062
v 1.974031 -0.317199 -0.142971
v 2.151403 0.000000 -0.397208
v 1.288115 -0.899744 0.284353
v 2.201972 -0.011141 -0.387600
v 2.193675 0.000000 -0.378695
v 1.628598 -0.772824 0.208279
v 1.323385 -0.962252 0.401657
v 1.288115 -0.966926 0.400488
v 1.860411 -0.544765 0.057864
v 2.079012 -0.277669 -0.121448
v 2.196832 0.000000 -0.376475
v 1.554478 -0.799367 0.418615
v 1.288115 -0.912202 0.404336
v 2.245840 -0.011141 -0.358358
v 2.238867 0.000000 -0.348455
v 1.553094 -0.922752 0.410687
v 1.771339 -0.727019 0.225747
v 1.288115 -0.869288 0.405438
v 2.007130 -0.492161 0.088205
v 2.194042 -0.231481 -0.098041
v 2.243221 0.000000 -0.345196
v 1.672538 -0.897673 0.421670
v 1.288115 -0.822772 0.403234
v 2.330836 -0.011141 -0.290975
v 2.323919 0.000000 -0.281220
v 1.942105 -0.668014 0.250240
v 1.871677 -0.836454 0.440165
v 1.288115 -0.768271 0.403007
v 2.162158 -0.424173 0.119960
v 2.319425 -0.180268 -0.063871
v 2.330084 0.000000 -0.276015
v 1.989015 -0.299628 0.465647
v 1.288115 -0.727733 0.404129
v 2.415475 -0.011141 -0.213562
v 2.409148 0.000000 -0.203701
v 2.118033 -0.590437 0.277349
v 2.070371 -0.750663 0.453609
v 1.563021 -0.011142 0.466505
v 1.288115 -0.686934 0.403007
v 2.312619 -0.353040 0.154868
v 2.451998 -0.119721 -0.031627
v 2.419222 0.000000 -0.194894
v 2.302610 -0.639480 0.456189
v 1.558105 -0.473845 0.440703
v 1.983876 -0.011142 0.481650
v 1.288115 -0.390027 0.422866
v 2.499958 -0.011140 -0.126118
v 2.495037 0.000000 -0.116424
v 2.302712 -0.496935 0.303169
v 2.494173 -0.298906 0.464788
v 1.489831 0.000000 0.461034
v 1.288115 0.000000 0.444271
v 1.989114 -0.299628 0.530436
v 1.983975 -0.011142 0.546439
v 1.579474 0.000000 0.466472
v 1.984074 0.000000 0.481032
v 2.487436 -0.256826 0.187677
v 2.565002 -0.062468 0.005452
v 2.514075 0.000000 -0.097563
v 2.508584 -0.367246 0.329473
v 2.494272 -0.298906 0.529577
v 2.534850 -0.479705 0.458769
v 1.562903 0.000000 0.465884
v 1.984174 0.000000 0.545821
v 1.562900 0.000000 0.465828
v 2.564708 -0.011140 -0.054723
v 2.564772 0.000000 -0.041663
v 2.498683 -0.011140 0.480992
v 2.498782 -0.011140 0.545781
v 2.767090 -0.274242 0.461350
v 2.003733 0.000000 0.545786
v 2.657048 -0.139509 0.220109
v 2.635819 -0.011140 0.030304
v 2.620449 0.000000 0.024910
v 2.718210 -0.202293 0.355234
v 2.999329 -0.011139 0.463930
v 2.498607 0.000000 0.545154
v 2.498508 0.000000 0.480365
v 2.637661 0.000000 0.046775
v 2.979775 0.000000 0.463963
v 2.929883 -0.011139 0.380243
v 2.832921 -0.011140 0.263784
v 2.817658 0.000000 0.259994
v 2.989497 0.000000 0.463821
v 2.922991 0.000000 0.383677
v 2.826236 0.000000 0.269114
v 2.917548 0.000000 0.378786
vt 0.000000 0.000000
vt 0.000241 0.030425
vt 0.000009 0.001485
vn -1.000000 -0.000000 0.000000
vn 0.000000 1.000000 0.000000
vn 0.124300 -0.592000 -0.796300
vn 0.117400 0.000000 -0.993100
vn 0.176600 -0.013200 -0.984200
vn 0.176400 -0.629900 -0.756400
vn 0.148400 -0.598100 -0.787600
vn 0.134700 0.601400 -0.787500
vn 0.159900 0.612600 -0.774100
vn 0.187100 -0.643200 -0.742500
vn 0.200000 -0.659500 -0.724700
vn 0.069500 -0.527600 -0.846600
vn 0.058300 0.000000 -0.998300
vn 0.175700 0.632800 -0.754100
vn 0.085900 0.545500 -0.833700
vn 0.224100 -0.015800 -0.974400
vn 0.204700 -0.664500 -0.718700
vn 0.187100 -0.663800 -0.724200
vn 0.105000 -0.542200 -0.833700
vn 0.111200 0.556800 -0.823200
vn 0.152400 0.623700 -0.766600
vn 0.263400 -0.651000 -0.711900
vn 0.027900 -0.459000 -0.888000
vn 0.031600 -0.000000 -0.999500
vn 0.054300 0.488000 -0.871100
vn 0.192900 0.652400 -0.732900
vn 0.232000 -0.685100 -0.690500
vn 0.026300 -0.000000 -0.999700
vn 0.024900 0.456100 -0.889600
vn 0.183400 0.651000 -0.736600
vn 0.284300 -0.007000 -0.958700
vn 0.234700 -0.687900 -0.686800
vn 0.226400 -0.681000 -0.696400
vn 0.023400 0.454600 -0.890400
vn 0.228200 0.677700 -0.699100
vn 0.246300 -0.694900 -0.675600
vn 0.350700 -0.004900 -0.936500
vn 0.261900 -0.696000 -0.668600
vn 0.227200 0.678300 -0.698800
vn 0.243000 -0.721200 -0.648700
vn 0.270900 -0.735200 -0.621400
vn 0.248600 0.688100 -0.681700
vn 0.249300 -0.735400 -0.630000
vn 0.416000 -0.002700 -0.909400
vn 0.297500 -0.703400 -0.645600
vn 0.273700 0.698500 -0.661300
vn 0.300700 0.710300 -0.636400
vn 0.323700 -0.710200 -0.625200
vn 0.479100 -0.001700 -0.877800
vn 0.334900 -0.715600 -0.613000
vn 0.308800 0.712800 -0.629700
vn 0.328200 0.716900 -0.615100
vn 0.327100 -0.713700 -0.619400
vn 0.484400 -0.005700 -0.874800
vn 0.365200 -0.718300 -0.592100
vn 0.355100 0.721500 -0.594400
vn 0.326200 0.722100 -0.610100
vn 0.227600 -0.811200 -0.538700
vn 0.213700 -0.783000 -0.584100
vn 0.157200 -0.872600 -0.462400
vn 0.359500 -0.702300 -0.614400
vn 0.520400 -0.003500 -0.853900
vn 0.386200 -0.720600 -0.575900
vn 0.329700 0.727000 -0.602300
vn 0.158400 -0.854400 -0.494800
vn 0.130200 -0.858200 -0.496500
vn 0.382400 0.735300 -0.559600
vn 0.320500 -0.784800 -0.530500
vn 0.228200 -0.815500 -0.531800
vn 0.398600 -0.699000 -0.593800
vn 0.595300 0.000100 -0.803500
vn 0.418500 -0.720500 -0.553000
vn 0.390700 0.736000 -0.552800
vn 0.416800 0.733000 -0.537500
vn 0.360400 -0.755400 -0.547200
vn 0.271700 -0.789800 -0.549900
vn 0.438900 -0.675900 -0.592100
vn 0.644100 -0.000100 -0.765000
vn 0.454200 -0.715200 -0.531200
vn 0.432500 0.730800 -0.528000
vn 0.459300 0.723300 -0.515600
vn 0.389800 -0.735100 -0.554700
vn 0.332800 -0.757500 -0.561700
vn 0.479800 -0.668700 -0.568000
vn 0.680500 -0.000400 -0.732800
vn 0.499800 -0.696200 -0.515300
vn 0.461900 0.720300 -0.517400
vn 0.408900 -0.689300 -0.598100
vn 0.385300 -0.731600 -0.562500
vn 0.510500 0.689400 -0.513900
vn 0.505500 -0.652400 -0.564600
vn 0.718100 0.000600 -0.695900
vn 0.567700 -0.648700 -0.506900
vn 0.521200 0.679500 -0.516300
vn 0.454800 -0.671400 -0.585100
vn 0.414000 -0.676800 -0.608800
vn 0.573500 0.626400 -0.527900
vn 0.476200 -0.635000 -0.608300
vn 0.476100 -0.622300 -0.621300
vn 0.588900 -0.617700 -0.521200
vn 0.752000 0.004400 -0.659200
vn 0.768300 -0.004400 -0.640100
vn 0.604900 0.604400 -0.518500
vn 0.615400 0.603600 -0.507000
vn 0.569200 -0.571500 -0.591000
vn 0.560400 -0.566600 -0.604100
vn 0.768300 0.020200 -0.639800
vn 0.596200 0.632500 -0.494400
vn 0.743900 0.005000 -0.668300
vn 0.731600 -0.023000 -0.681400
vn 0.593600 0.623600 -0.508700
vn 0.638400 0.558300 -0.529800
vn 0.597400 0.549700 -0.583900
vn 0.606300 0.573600 -0.550800
vn -0.026400 -0.066300 0.997400
vn -0.042700 -0.025600 0.998800
vn -0.075800 -0.060100 0.995300
vn -0.061700 0.047200 0.997000
vn -0.058000 0.004200 0.998300
vn -0.064500 -0.033200 0.997400
vn -0.061700 -0.027600 0.997700
vn -0.033400 -0.060300 0.997600
vn -0.046900 0.027500 0.998500
vn 0.001500 -0.026400 0.999700
vn -0.035900 -0.056000 0.997800
vn -0.086300 -0.066500 0.994000
vn 0.001700 -0.026200 0.999700
vn -0.082700 -0.054600 0.995100
vn -0.035900 0.056000 0.997800
vn 0.010200 -0.031000 0.999500
vn -0.066100 0.054900 0.996300
vn -0.038700 0.060200 0.997400
vn 0.014900 -0.025800 0.999600
vn 0.999100 0.008300 -0.042800
vn 0.034000 -0.056700 0.997800
vn 0.034000 0.056700 0.997800
vn 0.014600 0.022700 0.999600
vn 0.211600 -0.799200 -0.562600
vn 0.287700 -0.770800 -0.568400
vn 0.229900 -0.787000 -0.572500
vn 0.289600 -0.775000 -0.561700
vn 0.233900 -0.763800 -0.601500
vn 0.594000 0.608300 -0.526400
vn -0.999800 -0.017900 0.001500
vn 0.001400 -1.000000 -0.000000
vn -0.999800 0.017900 0.001500
vn 0.001800 -0.055400 0.998500
vn 0.999900 -0.015600 -0.001500
vn 0.001800 0.055400 0.998500
vn 0.001300 -0.056200 0.998400
vn 0.999900 0.015600 -0.001500
vn 0.001300 0.056200 0.998400
usemtl Blue.006
s off
f 112/1/1 32/1/1 27/1/1 21/1/1 16/1/1 10/1/1 5/1/1 1/1/1 4/1/1 9/1/1 15/1/1 20/1/1 25/1/1 30/1/1 34/1/1 38/1/1 41/1/1 45/1/1 48/1/1 51/1/1 55/1/1 59/1/1 63/1/1 68/1/1 73/1/1 78/1/1 83/1/1 88/1/1 93/1/1 99/1/1 106/1/1
f 32/1/2 112/1/2 111/1/2 123/1/2 125/1/2 115/1/2 116/1/2 124/1/2 131/1/2 137/1/2 138/1/2 140/1/2 144/1/2 145/1/2 147/1/2 146/1/2 143/1/2 139/1/2 134/1/2 127/1/2 119/1/2 108/1/2 102/1/2 95/1/2 91/1/2 85/1/2 81/1/2 75/1/2 71/1/2 65/1/2 62/1/2 57/1/2 54/1/2 50/1/2 47/1/2 43/1/2 40/1/2 36/1/2 33/1/2 29/1/2 24/1/2 18/1/2 12/1/2 6/1/2 7/1/2 13/1/2 17/1/2 23/1/2 28/1/2
s 1
f 1/1/3 2/1/4 3/1/5 4/1/6
f 5/1/7 2/1/4 1/1/3
f 6/1/8 3/1/5 2/1/4 7/1/9
f 4/1/6 3/1/5 8/1/10 9/1/11
f 10/1/12 11/1/13 2/1/4 5/1/7
f 12/1/14 3/1/5 6/1/8
f 7/1/9 2/1/4 13/1/15
f 3/1/5 14/1/16 19/1/17 8/1/10
f 9/1/11 8/1/10 15/1/18
f 16/1/19 11/1/13 10/1/12
f 13/1/15 2/1/4 11/1/13 17/1/20
f 18/1/21 14/1/16 3/1/5 12/1/14
f 15/1/18 8/1/10 20/1/22
f 21/1/23 22/1/24 11/1/13 16/1/19
f 17/1/20 11/1/13 23/1/25
f 24/1/26 14/1/16 18/1/21
f 20/1/22 8/1/10 19/1/17 25/1/27
f 27/1/28 22/1/24 21/1/23
f 23/1/25 11/1/13 22/1/24 28/1/29
f 29/1/30 26/1/31 14/1/16 24/1/26
f 25/1/27 19/1/17 30/1/32
f 31/1/33 19/1/17 14/1/16 26/1/31
f 28/1/29 22/1/24 27/1/28 32/1/34
f 33/1/35 26/1/31 29/1/30
f 30/1/32 19/1/17 31/1/33 34/1/36
f 26/1/31 35/1/37 39/1/38 31/1/33
f 36/1/39 35/1/37 26/1/31 33/1/35
f 34/1/36 31/1/33 37/1/40 38/1/41
f 40/1/42 35/1/37 36/1/39
f 31/1/33 39/1/38 44/1/43 37/1/40
f 35/1/37 42/1/44 46/1/45 39/1/38
f 43/1/46 42/1/44 35/1/37 40/1/42
f 47/1/47 42/1/44 43/1/46
f 39/1/38 46/1/45 52/1/48 44/1/43
f 42/1/44 49/1/49 53/1/50 46/1/45
f 50/1/51 49/1/49 42/1/44 47/1/47
f 54/1/52 49/1/49 50/1/51
f 46/1/45 53/1/50 60/1/53 52/1/48
f 49/1/49 56/1/54 61/1/55 53/1/50
f 57/1/56 56/1/54 49/1/49 54/1/52
f 62/1/57 56/1/54 57/1/56
f 59/1/58 58/1/59 63/1/60
f 53/1/50 61/1/55 69/1/61 60/1/53
f 56/1/54 64/1/62 70/1/63 61/1/55
f 65/1/64 64/1/62 56/1/54 62/1/57
f 63/1/60 58/1/59 67/1/65 68/1/66
f 71/1/67 64/1/62 65/1/64
f 58/1/59 66/1/68 76/1/69 67/1/65
f 61/1/55 70/1/63 79/1/70 69/1/61
f 64/1/62 74/1/71 80/1/72 70/1/63
f 75/1/73 74/1/71 64/1/62 71/1/67
f 81/1/74 74/1/71 75/1/73
f 66/1/68 77/1/75 82/1/76 76/1/69
f 70/1/63 80/1/72 89/1/77 79/1/70
f 74/1/71 84/1/78 90/1/79 80/1/72
f 85/1/80 84/1/78 74/1/71 81/1/74
f 91/1/81 84/1/78 85/1/80
f 77/1/75 86/1/82 87/1/83 82/1/76
f 80/1/72 90/1/79 100/1/84 89/1/77
f 84/1/78 94/1/85 101/1/86 90/1/79
f 95/1/87 94/1/85 84/1/78 91/1/81
f 86/1/82 96/1/88 97/1/89 87/1/83
f 102/1/90 94/1/85 95/1/87
f 90/1/79 101/1/86 117/1/91 100/1/84
f 94/1/85 107/1/92 118/1/93 101/1/86
f 108/1/94 107/1/92 94/1/85 102/1/90
f 96/1/88 109/1/95 103/1/96 97/1/89
f 119/1/97 107/1/92 108/1/94
f 109/1/95 120/1/98 122/1/99 103/1/96
f 101/1/86 118/1/93 132/1/100 117/1/91
f 107/1/92 126/1/101 133/1/102 118/1/93
f 127/1/103 126/1/101 107/1/92 119/1/97
f 134/1/104 133/1/102 126/1/101 127/1/103
f 120/1/98 135/1/105 130/1/106 122/1/99
f 118/1/93 133/1/102 142/1/107 132/1/100
f 139/1/108 133/1/102 134/1/104
f 136/1/109 130/1/106 135/1/105 141/1/110
f 143/1/111 142/1/107 133/1/102 139/1/108
f 144/1/112 136/1/109 141/1/110 145/1/113
f 145/1/113 141/1/110 147/1/114
usemtl WhiteBase.006
s off
f 68/1/115 67/1/115 76/1/115 72/1/115 73/1/115
f 73/1/116 72/1/116 78/1/116
f 76/1/117 82/1/117 87/1/117 72/1/117
f 78/1/118 72/1/118 83/1/118
f 83/1/119 72/1/119 88/1/119
f 72/1/120 87/1/120 97/1/120 92/1/120
f 88/2/121 72/1/121 93/1/121
f 92/1/122 98/1/122 104/1/122 72/1/122
f 93/1/123 72/1/123 99/3/123
f 97/1/124 103/1/124 92/1/124
f 92/1/125 105/1/125 98/1/125
f 99/1/126 72/1/126 104/1/126 106/1/126
f 92/1/127 103/1/127 110/1/127
f 104/1/128 98/1/128 111/1/128 112/1/128 106/1/128
f 115/1/129 98/1/129 105/1/129 116/1/129
f 103/1/130 122/1/130 110/1/130
f 111/1/131 98/1/131 123/1/131
f 125/1/132 98/1/132 115/1/132
f 122/1/133 130/1/133 136/1/133 110/1/133
f 123/1/134 98/1/134 125/1/134
f 136/1/135 128/1/135 110/1/135
f 138/1/136 128/1/136 136/1/136 140/1/136
f 140/1/137 136/1/137 144/1/137
s 1
f 38/1/41 37/1/40 41/1/138
f 41/1/138 37/1/40 45/1/139
f 45/1/139 37/1/40 44/1/43 48/1/140
f 48/1/140 44/1/43 51/1/141
f 51/1/141 44/1/43 52/1/48 55/1/142
f 55/1/142 52/1/48 58/1/59 59/1/58
f 52/1/48 60/1/53 66/1/68 58/1/59
f 60/1/53 69/1/61 77/1/75 66/1/68
f 69/1/61 79/1/70 86/1/82 77/1/75
f 79/1/70 89/1/77 96/1/88 86/1/82
f 89/1/77 100/1/84 109/1/95 96/1/88
f 100/1/84 117/1/91 120/1/98 109/1/95
f 117/1/91 132/1/100 135/1/105 120/1/98
f 132/1/100 142/1/107 141/1/110 135/1/105
f 146/1/143 142/1/107 143/1/111
f 147/1/114 141/1/110 142/1/107 146/1/143
usemtl Wood_woodhighquality1.jpg.000_NONE.004
s off
f 105/1/144 92/1/144 113/1/144 114/1/144
f 92/1/145 110/1/145 121/1/145 113/1/145
f 116/1/146 105/1/146 114/1/146 124/1/146
f 114/1/147 113/1/147 121/1/147
f 110/1/148 128/1/148 129/1/148 121/1/148
f 124/1/149 114/1/149 131/1/149
f 121/1/150 129/1/150 114/1/150
f 137/1/151 129/1/151 128/1/151 138/1/151
f 131/1/152 114/1/152 129/1/152 137/1/152
