# Blender v2.76 (sub 0) OBJ File: ''
# www.blender.org
mtllib frontLeft.mtl
o centerLeft_Cabin_Plane.001_Windows.005
v 1.288115 0.460521 -0.251997
v 1.316650 0.455294 -0.248879
v 1.740033 0.000000 -0.532237
v 1.738016 0.000000 -0.532779
v 1.288115 0.404992 -0.300453
v 1.288115 0.478859 -0.234651
v 1.818116 0.000000 -0.519601
v 1.662378 0.000000 -0.542853
v 1.288115 0.393318 -0.308878
v 1.288115 0.488524 -0.225890
v 1.430693 0.432797 -0.236307
v 1.820356 0.000000 -0.518950
v 1.659286 0.000000 -0.543600
v 1.288115 0.302004 -0.384202
v 1.288115 0.555396 -0.162573
v 1.898342 0.000000 -0.502413
v 1.545655 0.000000 -0.550150
v 1.288115 0.256082 -0.411693
v 1.288115 0.603488 -0.114069
v 1.550483 0.406623 -0.221786
v 1.900782 0.000000 -0.501597
v 1.541086 0.000000 -0.550915
v 1.288115 0.178688 -0.466580
v 1.288115 0.633973 -0.083587
v 1.978644 0.000000 -0.477254
v 1.427291 0.000000 -0.554701
v 1.288115 0.115316 -0.499475
v 1.288115 0.690503 -0.024873
v 1.325571 0.681012 -0.020750
v 1.658671 0.382486 -0.207896
v 1.980987 0.000000 -0.476432
v 1.288115 0.000000 -0.558357
v 1.288115 0.704859 -0.000959
v 2.058717 0.000000 -0.446315
v 1.288115 0.716925 0.015149
v 1.461196 0.644981 -0.007823
v 1.758601 0.358075 -0.188508
v 2.060961 0.000000 -0.445271
v 1.288115 0.761148 0.082378
v 2.103506 0.000000 -0.424693
v 1.288115 0.830497 0.174044
v 1.585527 0.609752 0.009471
v 1.872994 0.327507 -0.166082
v 2.106301 0.000000 -0.423292
v 1.288115 0.830828 0.174544
v 2.148724 0.000000 -0.398892
v 1.288115 0.831368 0.175188
v 1.451278 0.797526 0.188962
v 1.732061 0.564567 0.034062
v 1.974030 0.294916 -0.142971
v 2.151403 0.000000 -0.397208
v 1.288115 0.877456 0.284351
v 2.193675 0.000000 -0.378695
v 1.288115 0.944639 0.400488
v 1.323381 0.939966 0.401657
v 1.628595 0.750539 0.208279
v 1.860408 0.522481 0.057864
v 2.079011 0.255387 -0.121448
v 2.196832 0.000000 -0.376475
v 1.288115 0.889915 0.404336
v 1.554474 0.777082 0.418615
v 2.238867 0.000000 -0.348455
v 1.288115 0.847001 0.405438
v 1.553090 0.900467 0.410687
v 1.771336 0.704735 0.225747
v 2.007128 0.469878 0.088205
v 2.194041 0.209199 -0.098041
v 2.243221 0.000000 -0.345196
v 1.288115 0.800485 0.403235
v 1.672534 0.875388 0.421670
v 2.323919 0.000000 -0.281220
v 1.288115 0.745986 0.403007
v 1.871673 0.814170 0.440165
v 1.942102 0.645730 0.250240
v 2.162156 0.401891 0.119960
v 2.319425 0.157986 -0.063871
v 2.330084 0.000000 -0.276015
v 1.288115 0.450083 0.422866
v 1.558103 0.451560 0.440703
v 1.989014 0.277345 0.465647
v 2.409148 0.000000 -0.203701
v 1.288115 0.030708 0.445956
v 1.489831 0.000000 0.461034
v 1.562903 0.000000 0.465884
v 1.562900 0.000000 0.465828
v 2.118031 0.568154 0.277349
v 2.070368 0.728381 0.453609
v 1.579474 0.000000 0.466472
v 2.312617 0.330758 0.154868
v 2.451997 0.097440 -0.031627
v 2.419222 0.000000 -0.194894
v 1.288115 0.000000 0.444271
v 2.302608 0.617199 0.456189
v 1.984074 0.000000 0.481032
v 2.495037 0.000000 -0.116424
v 2.302709 0.474653 0.303169
v 2.494171 0.276625 0.464788
v 1.984174 0.000000 0.545821
v 1.989113 0.277345 0.530436
v 2.487435 0.234545 0.187677
v 2.565002 0.040188 0.005452
v 2.514075 0.000000 -0.097563
v 2.508582 0.344965 0.329473
v 2.494270 0.276625 0.529577
v 2.534848 0.457425 0.458769
v 2.003733 0.000000 0.545786
v 2.564772 0.000000 -0.041663
v 2.498508 0.000000 0.480365
v 2.498607 0.000000 0.545154
v 2.767089 0.251963 0.461350
v 2.657047 0.117229 0.220109
v 2.620449 0.000000 0.024910
v 2.718210 0.180013 0.355234
v 2.979775 0.000000 0.463963
v 2.989497 0.000000 0.463821
v 2.637661 0.000000 0.046775
v 2.922991 0.000000 0.383677
v 2.917548 0.000000 0.378786
v 2.817658 0.000000 0.259994
v 2.826236 0.000000 0.269114
vt 0.000000 0.000000
vn -1.000000 -0.000000 0.000000
vn 0.000000 -1.000000 0.000000
vn 0.200000 0.659500 -0.724700
vn 0.203100 0.659500 -0.723800
vn 0.150800 0.619600 -0.770300
vn 0.172900 0.627600 -0.759100
vn 0.176400 0.629900 -0.756400
vn 0.187100 0.663800 -0.724200
vn 0.185600 0.645100 -0.741200
vn 0.131700 0.596400 -0.791800
vn 0.124300 0.592000 -0.796300
vn 0.205100 0.669800 -0.713600
vn 0.221300 0.662000 -0.716000
vn 0.177200 0.645000 -0.743400
vn 0.149900 0.599300 -0.786400
vn 0.148400 0.598100 -0.787600
vn 0.232000 0.685100 -0.690500
vn 0.210500 0.666900 -0.714800
vn 0.074600 0.531300 -0.843900
vn 0.069500 0.527600 -0.846600
vn 0.275100 0.699200 -0.659900
vn 0.240500 0.678200 -0.694400
vn 0.224900 0.676400 -0.701400
vn 0.112400 0.549700 -0.827800
vn 0.105000 0.542200 -0.833700
vn 0.246300 0.694900 -0.675600
vn 0.234300 0.682000 -0.692800
vn 0.028000 0.459100 -0.887900
vn 0.027900 0.459000 -0.888000
vn 0.287500 0.780200 -0.555500
vn 0.202700 0.783100 -0.587900
vn 0.265400 0.691100 -0.672300
vn 0.253300 0.689700 -0.678300
vn 0.023400 0.454600 -0.890400
vn 0.284700 0.703600 -0.651100
vn 0.227600 0.770200 -0.595900
vn 0.306400 0.711300 -0.632600
vn 0.302400 0.710800 -0.635100
vn 0.278300 0.734600 -0.618800
vn 0.310600 0.713500 -0.628100
vn 0.335800 0.714300 -0.614000
vn 0.331800 0.717400 -0.612500
vn 0.317000 0.743200 -0.589200
vn 0.358300 0.722200 -0.591600
vn 0.371700 0.718200 -0.588300
vn 0.321300 0.721700 -0.613100
vn 0.157200 0.872600 -0.462400
vn 0.167700 0.831100 -0.530100
vn 0.242100 0.850500 -0.467000
vn 0.347000 0.721800 -0.598800
vn 0.342100 0.728800 -0.593100
vn 0.130200 0.858200 -0.496500
vn 0.176400 0.833800 -0.523100
vn 0.398800 0.720400 -0.567400
vn 0.383600 0.735100 -0.559000
vn 0.237700 0.829700 -0.505100
vn 0.228100 0.794400 -0.562900
vn 0.377000 0.716900 -0.586500
vn 0.390700 0.736000 -0.552900
vn 0.427100 0.720000 -0.547000
vn 0.412800 0.734100 -0.539200
vn 0.289400 0.794800 -0.533400
vn 0.290200 0.764100 -0.576200
vn 0.418700 0.706200 -0.570900
vn 0.431900 0.730900 -0.528400
vn 0.454600 0.711400 -0.535900
vn 0.449900 0.726900 -0.518800
vn 0.340600 0.766100 -0.545000
vn 0.336200 0.738600 -0.584300
vn 0.436900 0.700700 -0.564000
vn 0.462900 0.720200 -0.516800
vn 0.388500 0.722000 -0.572600
vn 0.416900 0.714000 -0.562600
vn 0.491200 0.698300 -0.520700
vn 0.474300 0.710800 -0.519400
vn 0.543700 0.650100 -0.530800
vn 0.523100 0.679200 -0.514900
vn 0.416400 0.680000 -0.603500
vn 0.429700 0.668300 -0.607200
vn 0.569000 0.644800 -0.510300
vn 0.525300 0.672100 -0.521900
vn 0.488300 0.614000 -0.620200
vn 0.520900 0.611300 -0.595800
vn 0.567000 0.651000 -0.504800
vn 0.592700 0.611400 -0.524400
vn 0.617300 0.612700 -0.493500
vn 0.551500 0.553800 -0.623800
vn 0.547900 0.574000 -0.608600
vn 0.610700 0.622500 -0.489300
vn 0.605700 0.551600 -0.573500
vn 0.638400 0.558300 -0.529800
vn 0.568700 0.579200 -0.584000
vn 0.574100 0.621900 -0.532600
vn -0.026400 0.066300 0.997400
vn -0.042700 0.025600 0.998800
vn -0.061700 -0.047200 0.997000
vn -0.075800 0.060100 0.995300
vn -0.058000 -0.004200 0.998300
vn -0.066100 0.066800 0.995600
vn -0.064500 0.033200 0.997400
vn -0.066100 0.054900 0.996300
vn 0.999000 0.008200 -0.042900
vn -0.038700 0.060200 0.997400
vn -0.082700 -0.054600 0.995100
vn 0.001500 0.026400 0.999700
vn -0.035900 0.056000 0.997800
vn 0.001700 0.026200 0.999700
vn 0.010200 0.031000 0.999500
vn 0.014900 0.025800 0.999600
vn 0.034000 0.056700 0.997800
vn 0.211600 0.799200 -0.562600
vn 0.276200 0.811700 -0.514600
vn 0.229900 0.787000 -0.572500
vn 0.306700 0.808900 -0.501600
vn 0.233900 0.763800 -0.601500
vn 0.594600 0.608300 -0.525700
vn -0.999800 0.017900 0.001500
vn 0.001400 1.000000 -0.000000
vn 0.001800 0.055400 0.998500
vn 0.999900 0.015600 -0.001500
vn 0.001300 0.056200 0.998400
usemtl Blue.005
s off
f 32/1/1 92/1/1 82/1/1 78/1/1 72/1/1 69/1/1 63/1/1 60/1/1 54/1/1 52/1/1 47/1/1 45/1/1 41/1/1 39/1/1 35/1/1 33/1/1 28/1/1 24/1/1 19/1/1 15/1/1 10/1/1 6/1/1 1/1/1 5/1/1 9/1/1 14/1/1 18/1/1 23/1/1 27/1/1
f 92/1/2 32/1/2 26/1/2 22/1/2 17/1/2 13/1/2 8/1/2 4/1/2 3/1/2 7/1/2 12/1/2 16/1/2 21/1/2 25/1/2 31/1/2 34/1/2 38/1/2 40/1/2 44/1/2 46/1/2 51/1/2 53/1/2 59/1/2 62/1/2 68/1/2 71/1/2 77/1/2 81/1/2 91/1/2 95/1/2 102/1/2 107/1/2 112/1/2 116/1/2 119/1/2 120/1/2 118/1/2 117/1/2 115/1/2 114/1/2 108/1/2 109/1/2 106/1/2 98/1/2 94/1/2 88/1/2 85/1/2 84/1/2 83/1/2
s 1
f 1/1/3 2/1/4 3/1/5 4/1/6 5/1/7
f 6/1/8 2/1/4 1/1/3
f 3/1/5 2/1/4 7/1/9
f 5/1/7 4/1/6 8/1/10 9/1/11
f 10/1/12 2/1/4 6/1/8
f 7/1/9 2/1/4 11/1/13 12/1/14
f 9/1/11 8/1/10 13/1/15 14/1/16
f 15/1/17 11/1/13 2/1/4 10/1/12
f 12/1/14 11/1/13 16/1/18
f 14/1/16 13/1/15 17/1/19 18/1/20
f 19/1/21 11/1/13 15/1/17
f 16/1/18 11/1/13 20/1/22 21/1/23
f 18/1/20 17/1/19 22/1/24 23/1/25
f 24/1/26 20/1/22 11/1/13 19/1/21
f 21/1/23 20/1/22 25/1/27
f 23/1/25 22/1/24 26/1/28 27/1/29
f 28/1/30 29/1/31 20/1/22 24/1/26
f 25/1/27 20/1/22 30/1/32 31/1/33
f 27/1/29 26/1/28 32/1/34
f 31/1/33 30/1/32 34/1/35
f 36/1/36 30/1/32 20/1/22 29/1/31
f 34/1/35 30/1/32 37/1/37 38/1/38
f 30/1/32 36/1/36 42/1/39 37/1/37
f 38/1/38 37/1/37 40/1/40
f 40/1/40 37/1/37 43/1/41 44/1/42
f 37/1/37 42/1/39 49/1/43 43/1/41
f 44/1/42 43/1/41 46/1/44
f 46/1/44 43/1/41 50/1/45 51/1/46
f 52/1/47 48/1/48 47/1/49
f 43/1/41 49/1/43 57/1/50 50/1/45
f 51/1/46 50/1/45 53/1/51
f 54/1/52 55/1/53 48/1/48 52/1/47
f 53/1/51 50/1/45 58/1/54 59/1/55
f 48/1/48 55/1/53 64/1/56 56/1/57
f 50/1/45 57/1/50 66/1/58 58/1/54
f 59/1/55 58/1/54 62/1/59
f 62/1/59 58/1/54 67/1/60 68/1/61
f 56/1/57 64/1/56 70/1/62 65/1/63
f 58/1/54 66/1/58 75/1/64 67/1/60
f 68/1/61 67/1/60 71/1/65
f 71/1/65 67/1/60 76/1/66 77/1/67
f 73/1/68 74/1/69 65/1/63 70/1/62
f 67/1/60 75/1/64 89/1/70 76/1/66
f 77/1/67 76/1/66 81/1/71
f 74/1/69 73/1/68 87/1/72 86/1/73
f 81/1/71 76/1/66 90/1/74 91/1/75
f 76/1/66 89/1/70 100/1/76 90/1/74
f 91/1/75 90/1/74 95/1/77
f 86/1/73 87/1/72 93/1/78 96/1/79
f 95/1/77 90/1/74 101/1/80 102/1/81
f 96/1/79 93/1/78 105/1/82 103/1/83
f 90/1/74 100/1/76 111/1/84 101/1/80
f 102/1/81 101/1/80 107/1/85
f 107/1/85 101/1/80 112/1/86
f 103/1/83 105/1/82 110/1/87 113/1/88
f 112/1/86 101/1/80 111/1/84 116/1/89
f 117/1/90 110/1/87 115/1/91
f 118/1/92 113/1/88 110/1/87 117/1/90
f 116/1/89 111/1/84 119/1/93
usemtl WhiteBase.005
s off
f 60/1/94 61/1/94 64/1/94 55/1/94 54/1/94
f 63/1/95 61/1/95 60/1/95
f 69/1/96 61/1/96 63/1/96
f 64/1/97 61/1/97 73/1/97 70/1/97
f 72/1/98 61/1/98 69/1/98
f 78/1/99 79/1/99 61/1/99 72/1/99
f 61/1/100 80/1/100 87/1/100 73/1/100
f 79/1/101 78/1/101 82/1/101 83/1/101 84/1/101
f 85/1/102 61/1/102 79/1/102 84/1/102
f 88/1/103 80/1/103 61/1/103 85/1/103
f 83/1/104 82/1/104 92/1/104
f 87/1/105 80/1/105 93/1/105
f 94/1/106 80/1/106 88/1/106
f 80/1/107 97/1/107 93/1/107
f 93/1/108 97/1/108 105/1/108
f 105/1/109 97/1/109 114/1/109 115/1/109 110/1/109
f 114/1/110 97/1/110 108/1/110
s 1
f 33/1/111 29/1/31 28/1/30
f 35/1/112 29/1/31 33/1/111
f 39/1/113 36/1/36 29/1/31 35/1/112
f 41/1/114 36/1/36 39/1/113
f 45/1/115 42/1/39 36/1/36 41/1/114
f 47/1/49 48/1/48 42/1/39 45/1/115
f 42/1/39 48/1/48 56/1/57 49/1/43
f 49/1/43 56/1/57 65/1/63 57/1/50
f 57/1/50 65/1/63 74/1/69 66/1/58
f 66/1/58 74/1/69 86/1/73 75/1/64
f 75/1/64 86/1/73 96/1/79 89/1/70
f 89/1/70 96/1/79 103/1/83 100/1/76
f 100/1/76 103/1/83 113/1/88 111/1/84
f 119/1/93 111/1/84 113/1/88 120/1/116
f 120/1/116 113/1/88 118/1/92
usemtl Wood_woodhighquality1.jpg.000_NONE.003
s off
f 98/1/117 99/1/117 80/1/117 94/1/117
f 97/1/118 80/1/118 99/1/118 104/1/118
f 106/1/119 104/1/119 99/1/119 98/1/119
f 108/1/120 97/1/120 104/1/120 109/1/120
f 109/1/121 104/1/121 106/1/121
