# Blender v2.76 (sub 0) OBJ File: ''
# www.blender.org
mtllib base_link.mtl
o base_link
v -0.511885 0.000000 -0.572433
v -0.511885 0.000000 0.299534
v -0.511885 0.958640 0.299297
v -0.511885 0.959630 0.299344
v -0.511885 0.960008 0.299468
v -0.511885 0.957725 0.286254
v -0.511885 0.918183 0.055375
v -0.511885 0.891975 -0.017392
v -0.511885 0.834776 -0.147147
v -0.511885 0.607227 -0.328323
v -0.511885 0.569849 -0.357267
v -0.511885 0.468479 -0.397711
v -0.261927 0.000000 -0.572491
v -0.248193 0.000000 -0.571824
v 0.583758 0.000000 -0.577390
v 0.595930 0.000000 -0.576540
v 1.288115 0.000000 -0.558357
v 1.288115 0.000000 0.444271
v 1.288115 0.944639 0.400488
v 1.287863 0.831068 0.174720
v 1.100119 0.969552 0.394258
v 1.288115 0.115316 -0.499475
v 1.288115 0.178688 -0.466580
v 1.288115 0.256082 -0.411693
v 1.288115 0.302004 -0.384202
v 1.288115 0.393318 -0.308877
v 1.288115 0.404992 -0.300453
v 1.288115 0.460521 -0.251997
v 1.288115 0.478859 -0.234651
v 1.288115 0.488525 -0.225890
v 1.288115 0.555396 -0.162573
v 1.288115 0.603488 -0.114069
v 1.288115 0.633973 -0.083587
v 1.288115 0.690503 -0.024873
v 1.288115 0.716925 0.015149
v 1.210667 0.474709 -0.260460
v 0.938682 0.767432 -0.060415
v 1.033967 0.508792 -0.275059
v 0.711151 0.805593 -0.073494
v 1.068630 0.744125 -0.049067
v 0.769526 0.544997 -0.293694
v 1.195915 0.713867 -0.035022
v 0.405884 0.833080 -0.093091
v 0.183674 0.940669 0.093950
v 0.016332 0.994387 0.340069
v 0.225348 1.000446 0.351681
v 0.483659 0.935303 0.114103
v 0.434364 1.000446 0.363293
v 0.715708 0.919456 0.126831
v 0.573708 0.994458 0.371034
v 0.859177 0.907527 0.137257
v 0.146578 0.565087 -0.327220
v -0.166428 0.842546 -0.128401
v -0.353042 0.927507 0.063726
v 0.749179 0.988470 0.378776
v 1.001900 0.887085 0.150267
v 0.924649 0.984234 0.386517
v 1.134368 0.864338 0.162503
vt 0.957601 0.481976
vt 0.957475 0.369092
vt 0.863603 0.478861
vt 0.782537 0.484286
vt 0.556751 0.537894
vt 0.556095 0.516393
vt 0.557487 0.501961
vt 0.560404 0.483370
vt 0.561855 0.471756
vt 0.566285 0.446761
vt 0.566608 0.442904
vt 0.569504 0.425539
vt 0.570738 0.419342
vt 0.571164 0.415931
vt 0.574628 0.394245
vt 0.577673 0.377653
vt 0.579724 0.366799
vt 0.586434 0.338881
vt 0.587686 0.333355
vt 0.602323 0.275285
vt 0.724234 0.338370
vt 0.324533 0.315487
vt 0.105305 0.381041
vt 0.030429 0.181854
vt 0.030378 0.181230
vt 0.030287 0.180995
vt 0.038790 0.181993
vt 0.123544 0.194129
vt 0.147365 0.202027
vt 0.187507 0.218602
vt 0.248294 0.247688
vt 0.258517 0.252936
vt 0.275075 0.268782
vt 0.397183 0.527716
vt 0.480807 0.311675
vt 0.519695 0.298358
vt 0.523730 0.297336
vt 0.643357 0.243551
vt 0.646734 0.242228
vt 0.754952 0.213912
vt 0.980736 0.160303
vt 0.957601 0.484228
vt 0.918877 0.519087
vt 0.957601 0.511993
vt 0.957601 0.478391
vt 0.782884 0.665448
vt 0.957601 0.521162
vt 0.957601 0.432734
vt 0.830527 0.536128
vt 0.766947 0.415433
vt 0.902940 0.269071
vt 0.814590 0.286113
vt 0.653182 0.434513
vt 0.847858 0.653795
vt 0.957601 0.525995
vt 0.957601 0.409773
vt 0.957601 0.559430
vt 0.957601 0.371076
vt 0.698306 0.554231
vt 0.957601 0.200446
vt 0.847858 0.257199
vt 0.911501 0.264221
vt 0.957601 0.224698
vt 0.957601 0.339390
vt 0.682369 0.304215
vt 0.500548 0.448257
vt 0.389443 0.078692
vt 0.305772 0.201751
vt 0.410280 0.207557
vt 0.539436 0.088768
vt 0.514788 0.213363
vt 0.655460 0.095132
vt 0.584460 0.217234
vt 0.727195 0.100345
vt 0.957601 0.583476
vt 0.911501 0.638666
vt 0.957601 0.598719
vt 0.595571 0.031717
vt 0.941664 0.089375
vt 0.941664 0.031717
vt 0.370895 0.314260
vt 0.214392 0.452990
vt 0.121085 0.063580
vt 0.041664 0.174844
vt 0.041664 0.181451
vt 0.957601 0.239939
vt 0.957601 0.269296
vt 0.589485 0.031717
vt 0.672196 0.221105
vt 0.798556 0.106850
vt 0.173510 0.031717
vt 0.041664 0.335330
vt 0.041664 0.316641
vt 0.041664 0.059404
vt 0.166643 0.031717
vt 0.041664 0.265956
vt 0.041664 0.449105
vt 0.814493 0.356866
vt 0.688133 0.471120
vt 0.775868 0.474991
vt 0.880727 0.362984
vt 0.041664 0.031717
vt 0.049601 0.785358
vt 0.680133 0.799778
vt 0.592397 0.802772
vt 0.522725 0.805766
vt 0.418217 0.805766
vt 0.313709 0.802737
vt 0.049601 0.785547
vt 0.049601 0.305543
vt 0.949601 0.777863
vt 0.049601 0.784863
vt 0.969506 0.785800
vt 0.069506 0.313480
vt 0.969506 0.313480
vt 0.875508 0.798256
vt 0.787773 0.805597
vt 0.700038 0.807715
vt 0.673024 0.145773
vt 0.559278 0.239571
vt 0.675303 0.245935
vt 0.786790 0.152312
vt 0.747037 0.251148
vt 0.851764 0.157986
vt 0.520391 0.135974
vt 0.409286 0.229495
vt 0.855795 0.157986
vt 0.751069 0.251148
vt 0.822430 0.257653
vt 0.919438 0.165009
vt 0.140928 0.214383
vt 0.061506 0.173824
vt 0.234235 0.118319
vt 0.061506 0.108946
vt 0.061506 0.210207
vt 0.965538 0.190094
vt 0.888664 0.263771
vt 0.965412 0.269880
vt 0.965538 0.170083
vn 0.132100 0.885400 -0.445600
vn 0.115700 0.898800 -0.422700
vn 1.000000 0.000100 -0.000000
vn 0.999400 0.004100 0.033000
vn 0.999700 0.002600 0.026200
vn 0.999500 0.003600 0.030900
vn -1.000000 -0.000000 0.000000
vn -0.999400 -0.021200 -0.026900
vn -0.996900 -0.076200 -0.018000
vn 0.000000 -1.000000 0.000000
vn 0.130400 0.598300 -0.790600
vn 0.206100 0.632300 -0.746800
vn 0.199900 0.658300 -0.725700
vn 0.166700 0.616400 -0.769600
vn 0.277400 0.642000 -0.714800
vn 0.196100 0.669900 -0.716100
vn 0.085600 0.545300 -0.833900
vn 0.171700 0.602400 -0.779500
vn -0.012000 0.647400 -0.762000
vn 0.129100 0.664500 -0.736100
vn 0.187900 0.662800 -0.724900
vn 0.115700 0.559900 -0.820400
vn 0.218200 0.676700 -0.703200
vn 0.060600 0.494900 -0.866800
vn 0.085900 0.566900 -0.819300
vn 0.315800 0.658400 -0.683200
vn 0.218200 0.673800 -0.706000
vn 0.025000 0.456200 -0.889500
vn 0.187300 0.541800 -0.819400
vn 0.002900 0.996800 -0.080200
vn 0.017000 0.973300 -0.228800
vn 0.022100 0.972500 -0.232000
vn -0.009500 0.987000 -0.160600
vn 0.055400 0.967800 -0.245600
vn 0.002100 0.984600 -0.174900
vn 0.121200 0.951100 -0.284100
vn 0.086500 0.987500 -0.131800
vn 0.238000 0.690100 -0.683500
vn 0.046600 0.448400 -0.892600
vn 0.023400 0.454600 -0.890400
vn 0.037700 0.558100 -0.828900
vn -0.106100 0.567900 -0.816200
vn -0.104300 0.985100 -0.137000
vn -0.034400 0.981100 -0.190600
vn -0.030900 0.980100 -0.196000
vn 0.247500 0.685900 -0.684400
vn 0.041500 0.431100 -0.901300
vn 0.099200 0.950300 -0.295000
vn 0.048100 0.960400 -0.274400
vn 0.028800 0.380100 -0.924500
vn 0.037200 0.614700 -0.787900
vn 0.043200 0.494500 -0.868100
vn -0.043300 0.989900 -0.135300
vn 0.029000 0.362900 -0.931400
vn 0.038300 0.367200 -0.929400
vn 0.104700 0.606200 -0.788400
vn 0.119000 0.925100 -0.360500
vn 0.123000 0.939000 -0.321300
vn -0.000200 0.349400 -0.937000
vn 0.155900 0.907900 -0.389100
vn 0.134800 0.912800 -0.385500
vn -0.053200 -0.276300 0.959600
vn -0.092500 -0.303600 0.948300
vn -0.082800 -0.301400 0.949900
vn -0.056100 0.000200 0.998400
vn -0.080100 0.046200 0.995700
vn -0.049400 -0.102500 0.993500
vn -0.056600 -0.208600 0.976400
vn 0.261000 0.853200 -0.451700
vn 0.137100 0.830500 -0.539900
vn 0.199600 0.801800 -0.563200
vn 0.037900 0.852100 -0.522000
vn 0.163600 0.748500 -0.642600
vn 0.258200 0.825100 -0.502600
vn -0.057500 0.924600 -0.376500
vn 0.019800 0.798400 -0.601800
vn 0.259700 0.774200 -0.577200
vn 0.171500 0.851100 -0.496200
vn 0.071300 0.894500 -0.441300
vn -0.011800 0.924200 -0.381700
vn 0.176400 0.930400 -0.321300
vn 0.020700 0.942800 -0.332800
vn -0.003400 0.939600 -0.342300
vn 0.193300 0.783800 -0.590100
vn 0.221300 0.754700 -0.617700
vn 0.208400 0.783300 -0.585600
vn 0.213500 0.815400 -0.538100
usemtl Blue.003
s off
f 19/1/1 20/2/2 21/3/1
f 18/4/3 17/5/3 22/6/3 23/7/3 24/8/3 25/9/3 26/10/3 27/11/3 28/12/3 29/13/3 30/14/3 31/15/3 32/16/4 33/17/3 34/18/3 35/19/5 20/20/6 19/21/3
f 1/22/7 2/23/7 3/24/7 4/25/7 5/26/7 6/27/7 7/28/8 8/29/7 9/30/9 10/31/7 11/32/7 12/33/7
f 2/34/10 1/35/10 13/36/10 14/37/10 15/38/10 16/39/10 17/40/10 18/41/10
s 1
f 27/42/11 36/43/12 28/44/13
f 26/45/14 36/43/12 27/42/11
f 28/44/13 36/43/12 37/46/15 29/47/16
f 25/48/17 38/49/18 36/43/12 26/45/14
f 37/50/15 36/51/12 38/52/18 39/53/19
f 29/47/16 37/46/15 40/54/20 30/55/21
f 24/56/22 38/49/18 25/48/17
f 30/55/21 40/54/20 31/57/23
f 23/58/24 41/59/25 38/49/18 24/56/22
f 31/60/23 40/61/20 42/62/26 32/63/27
f 22/64/28 41/59/25 23/58/24
f 41/65/25 43/66/29 39/53/19 38/52/18
f 44/67/30 45/68/31 46/69/32 47/70/33
f 47/70/33 46/69/32 48/71/34 49/72/35
f 49/72/35 48/71/34 50/73/36 51/74/37
f 32/75/27 42/76/26 33/77/38
f 16/78/39 41/65/25 22/79/28 17/80/40
f 41/65/25 52/81/41 53/82/42 43/66/29
f 44/67/30 54/83/43 6/84/44 5/85/45 45/68/31
f 33/86/38 42/62/26 34/87/46
f 15/88/47 52/81/41 41/65/25 16/78/39
f 51/74/37 50/73/36 55/89/48 56/90/49
f 14/91/50 52/81/41 15/88/47
f 10/92/51 53/82/42 52/81/41 11/93/52
f 6/84/44 54/83/43 7/94/53
f 13/95/54 12/96/55 11/93/52 52/81/41 14/91/50
f 9/97/56 53/82/42 10/92/51
f 56/98/49 55/99/48 57/100/57 58/101/58
f 12/96/55 13/95/54 1/102/59
f 58/101/58 57/100/57 21/3/60 20/2/61
usemtl WhiteBase.003
s off
f 4/103/62 55/104/62 50/105/63 48/106/62 46/107/62 45/108/64 5/109/62
usemtl white
f 2/110/65 19/111/65 3/112/65
f 19/113/66 2/114/66 18/115/66
f 19/113/67 21/116/67 57/117/67 55/118/67
f 3/112/68 19/111/68 55/104/68 4/103/68
s 1
f 39/119/69 47/120/70 49/121/71 37/122/72
f 37/122/72 49/121/71 51/123/73 40/124/74
f 47/120/70 39/119/69 43/125/75 44/126/76
f 40/127/74 51/128/73 56/129/77 42/130/78
f 44/126/76 43/125/75 54/131/79
f 8/132/80 54/131/79 53/133/81 9/134/82
f 7/135/83 54/131/79 8/132/80
f 35/136/84 58/137/85 20/138/86
f 34/139/87 56/129/77 58/137/85 35/136/84
f 34/139/87 42/130/78 56/129/77
f 53/133/81 54/131/79 43/125/75
